<svg width="24" height="21" viewBox="0 0 24 21" fill="none" xmlns="http://www.w3.org/2000/svg">
<path d="M16.3914 0.666504C17.0413 0.666526 17.6784 0.847494 18.2312 1.18913C18.7841 1.53078 19.2309 2.0196 19.5216 2.60084L21.1351 5.82667C21.4198 5.71 21.7032 5.59217 21.9786 5.45567C22.2555 5.31736 22.576 5.29472 22.8697 5.39274C23.1633 5.49076 23.4059 5.70141 23.5443 5.97834C23.6826 6.25527 23.7052 6.5758 23.6072 6.86942C23.5092 7.16304 23.2985 7.40569 23.0216 7.544C22.4453 7.83101 22.1816 7.91967 22.1816 7.91967L23.2969 10.1515C23.5408 10.638 23.6667 11.1735 23.6667 11.7172V14.6665C23.6675 15.159 23.5639 15.6462 23.3628 16.0958C23.1617 16.5454 22.8677 16.9474 22.5001 17.2752V18.7498C22.5001 19.214 22.3157 19.6591 21.9875 19.9873C21.6593 20.3155 21.2142 20.4998 20.7501 20.4998C20.286 20.4998 19.8408 20.3155 19.5126 19.9873C19.1845 19.6591 19.0001 19.214 19.0001 18.7498V18.1665H5.00008V18.7498C5.00008 19.214 4.81571 19.6591 4.48752 19.9873C4.15933 20.3155 3.71421 20.4998 3.25009 20.4998C2.78596 20.4998 2.34084 20.3155 2.01265 19.9873C1.68446 19.6591 1.50009 19.214 1.50009 18.7498V17.2752C0.783752 16.6335 0.333419 15.7025 0.333419 14.6665V11.7172C0.333637 11.174 0.460254 10.6384 0.703252 10.1527L1.81859 7.91967C1.53601 7.80248 1.25668 7.67761 0.980919 7.54517C0.843402 7.47694 0.720703 7.38225 0.619852 7.26652C0.519001 7.15078 0.441983 7.01628 0.393211 6.87072C0.344439 6.72516 0.324873 6.57141 0.335634 6.41828C0.346394 6.26515 0.38727 6.11564 0.455919 5.97834C0.597284 5.70285 0.841312 5.49399 1.13533 5.39686C1.42934 5.29973 1.74976 5.32211 2.02742 5.45917C2.30159 5.59217 2.58275 5.71234 2.86509 5.82667L4.47858 2.60084C4.7693 2.0196 5.21611 1.53078 5.76896 1.18913C6.32181 0.847494 6.95886 0.666526 7.60875 0.666504H16.3914ZM19.9731 8.72117C17.9897 9.34767 15.1676 9.99984 12.0001 9.99984C8.83259 9.99984 6.01042 9.34651 4.02708 8.72117L2.79042 11.1945C2.70911 11.3567 2.66676 11.5357 2.66675 11.7172V14.6665C2.66675 14.9759 2.78967 15.2727 3.00846 15.4915C3.22725 15.7103 3.524 15.8332 3.83342 15.8332H20.1667C20.4762 15.8332 20.7729 15.7103 20.9917 15.4915C21.2105 15.2727 21.3334 14.9759 21.3334 14.6665V11.7172C21.3332 11.5361 21.2909 11.3576 21.2097 11.1957L19.9731 8.72117ZM6.75008 11.1665C7.21421 11.1665 7.65933 11.3509 7.98752 11.6791C8.31571 12.0073 8.50008 12.4524 8.50008 12.9165C8.50008 13.3806 8.31571 13.8258 7.98752 14.1539C7.65933 14.4821 7.21421 14.6665 6.75008 14.6665C6.28596 14.6665 5.84084 14.4821 5.51265 14.1539C5.18446 13.8258 5.00008 13.3806 5.00008 12.9165C5.00008 12.4524 5.18446 12.0073 5.51265 11.6791C5.84084 11.3509 6.28596 11.1665 6.75008 11.1665ZM17.2501 11.1665C17.7142 11.1665 18.1593 11.3509 18.4875 11.6791C18.8157 12.0073 19.0001 12.4524 19.0001 12.9165C19.0001 13.3806 18.8157 13.8258 18.4875 14.1539C18.1593 14.4821 17.7142 14.6665 17.2501 14.6665C16.786 14.6665 16.3408 14.4821 16.0126 14.1539C15.6845 13.8258 15.5001 13.3806 15.5001 12.9165C15.5001 12.4524 15.6845 12.0073 16.0126 11.6791C16.3408 11.3509 16.786 11.1665 17.2501 11.1665ZM16.3914 2.99984H7.60875C7.39215 2.99995 7.17985 3.06037 6.99564 3.17432C6.81143 3.28826 6.66257 3.45124 6.56575 3.645L5.08408 6.60484C6.89008 7.14734 9.32375 7.6665 12.0001 7.6665C14.6764 7.6665 17.1101 7.14734 18.9149 6.60484L17.4344 3.645C17.3376 3.45124 17.1887 3.28826 17.0045 3.17432C16.8203 3.06037 16.608 2.99995 16.3914 2.99984Z" fill="white"/>
</svg>
