<svg width="878" height="880" viewBox="0 0 878 880" fill="none" xmlns="http://www.w3.org/2000/svg">
<g clip-path="url(#clip0_85_130)">
<path d="M711.794 581.547H497.533C488.81 581.547 481.739 588.618 481.739 597.342V713.536C481.739 722.259 488.81 729.331 497.533 729.331H711.794C720.517 729.331 727.589 722.259 727.589 713.536V597.342C727.589 588.618 720.517 581.547 711.794 581.547Z" fill="white"/>
<path opacity="0.1" d="M711.794 581.547H497.533C488.81 581.547 481.739 588.618 481.739 597.342V713.536C481.739 722.259 488.81 729.331 497.533 729.331H711.794C720.517 729.331 727.589 722.259 727.589 713.536V597.342C727.589 588.618 720.517 581.547 711.794 581.547Z" fill="#398414"/>
<path d="M659.868 660.787H640.896C639.741 660.787 638.805 661.724 638.805 662.879V704.93C638.805 706.085 639.741 707.021 640.896 707.021H659.868C661.023 707.021 661.959 706.085 661.959 704.93V662.879C661.959 661.724 661.023 660.787 659.868 660.787Z" fill="white"/>
<path d="M705.586 624.831H686.615C685.46 624.831 684.523 625.767 684.523 626.922V704.93C684.523 706.085 685.46 707.021 686.615 707.021H705.586C706.741 707.021 707.678 706.085 707.678 704.93V626.922C707.678 625.767 706.741 624.831 705.586 624.831Z" fill="white"/>
<path d="M522.711 660.787H503.74C502.585 660.787 501.649 661.724 501.649 662.879V704.93C501.649 706.085 502.585 707.021 503.74 707.021H522.711C523.866 707.021 524.803 706.085 524.803 704.93V662.879C524.803 661.724 523.866 660.787 522.711 660.787Z" fill="white"/>
<path d="M568.431 608.481H549.459C548.304 608.481 547.368 609.418 547.368 610.573V704.93C547.368 706.085 548.304 707.021 549.459 707.021H568.431C569.586 707.021 570.522 706.085 570.522 704.93V610.573C570.522 609.418 569.586 608.481 568.431 608.481Z" fill="white"/>
<path d="M614.149 650.425H595.177C594.022 650.425 593.086 651.361 593.086 652.516V704.93C593.086 706.085 594.022 707.021 595.177 707.021H614.149C615.304 707.021 616.24 706.085 616.24 704.93V652.516C616.24 651.361 615.304 650.425 614.149 650.425Z" fill="white"/>
<path d="M326.178 491.161H54.2423C43.1707 491.161 34.1954 500.136 34.1954 511.208V658.679C34.1954 669.75 43.1707 678.725 54.2423 678.725H326.178C337.249 678.725 346.225 669.75 346.225 658.679V511.208C346.225 500.136 337.249 491.161 326.178 491.161Z" fill="white"/>
<path opacity="0.1" d="M326.178 491.161H54.2423C43.1707 491.161 34.1954 500.136 34.1954 511.208V658.679C34.1954 669.75 43.1707 678.725 54.2423 678.725H326.178C337.249 678.725 346.225 669.75 346.225 658.679V511.208C346.225 500.136 337.249 491.161 326.178 491.161Z" fill="#398414"/>
<path d="M260.275 591.732H236.196C234.73 591.732 233.542 592.921 233.542 594.387V647.757C233.542 649.223 234.73 650.411 236.196 650.411H260.275C261.741 650.411 262.929 649.223 262.929 647.757V594.387C262.929 592.921 261.741 591.732 260.275 591.732Z" fill="white"/>
<path d="M318.3 546.097H294.221C292.756 546.097 291.567 547.285 291.567 548.751V647.758C291.567 649.224 292.756 650.412 294.221 650.412H318.3C319.766 650.412 320.954 649.224 320.954 647.758V548.751C320.954 547.285 319.766 546.097 318.3 546.097Z" fill="white"/>
<path d="M86.1977 591.732H62.1187C60.6529 591.732 59.4646 592.921 59.4646 594.387V647.757C59.4646 649.223 60.6529 650.411 62.1187 650.411H86.1977C87.6635 650.411 88.8517 649.223 88.8517 647.757V594.387C88.8517 592.921 87.6635 591.732 86.1977 591.732Z" fill="white"/>
<path d="M144.223 525.347H120.144C118.678 525.347 117.49 526.535 117.49 528.001V647.757C117.49 649.223 118.678 650.411 120.144 650.411H144.223C145.689 650.411 146.877 649.223 146.877 647.757V528.001C146.877 526.535 145.689 525.347 144.223 525.347Z" fill="white"/>
<path d="M202.249 578.58H178.17C176.705 578.58 175.516 579.768 175.516 581.234V647.757C175.516 649.223 176.705 650.411 178.17 650.411H202.249C203.715 650.411 204.903 649.223 204.903 647.757V581.234C204.903 579.768 203.715 578.58 202.249 578.58Z" fill="white"/>
<path d="M841.75 0H529.434C516.718 0 506.41 10.3081 506.41 23.0238V192.394C506.41 205.11 516.718 215.418 529.434 215.418H841.75C854.465 215.418 864.773 205.11 864.773 192.394V23.0238C864.773 10.3081 854.465 0 841.75 0Z" fill="white"/>
<path opacity="0.1" d="M841.75 0H529.434C516.718 0 506.41 10.3081 506.41 23.0238V192.394C506.41 205.11 516.718 215.418 529.434 215.418H841.75C854.465 215.418 864.773 205.11 864.773 192.394V23.0238C864.773 10.3081 854.465 0 841.75 0Z" fill="#398414"/>
<path d="M766.061 115.506H738.407C736.724 115.506 735.359 116.871 735.359 118.554V179.85C735.359 181.534 736.724 182.899 738.407 182.899H766.061C767.745 182.899 769.109 181.534 769.109 179.85V118.554C769.109 116.871 767.745 115.506 766.061 115.506Z" fill="white"/>
<path d="M832.703 63.0938H805.049C803.365 63.0938 802.001 64.4584 802.001 66.1418V179.851C802.001 181.534 803.365 182.899 805.049 182.899H832.703C834.386 182.899 835.751 181.534 835.751 179.851V66.1418C835.751 64.4584 834.386 63.0938 832.703 63.0938Z" fill="white"/>
<path d="M566.135 115.506H538.481C536.797 115.506 535.433 116.871 535.433 118.554V179.85C535.433 181.534 536.797 182.899 538.481 182.899H566.135C567.818 182.899 569.183 181.534 569.183 179.85V118.554C569.183 116.871 567.818 115.506 566.135 115.506Z" fill="white"/>
<path d="M632.777 39.2627H605.123C603.44 39.2627 602.075 40.6274 602.075 42.3108V179.85C602.075 181.534 603.44 182.898 605.123 182.898H632.777C634.461 182.898 635.825 181.534 635.825 179.85V42.3108C635.825 40.6274 634.461 39.2627 632.777 39.2627Z" fill="white"/>
<path d="M699.419 100.4H671.765C670.081 100.4 668.717 101.765 668.717 103.448V179.849C668.717 181.533 670.081 182.897 671.765 182.897H699.419C701.102 182.897 702.467 181.533 702.467 179.849V103.448C702.467 101.765 701.102 100.4 699.419 100.4Z" fill="white"/>
<path d="M145.252 550.272L760.6 550.272C775.711 550.272 787.962 538.022 787.962 522.911L787.962 72.3819C787.962 57.2706 775.711 45.0204 760.6 45.0204L145.252 45.0204C130.141 45.0204 117.891 57.2706 117.891 72.3819L117.891 522.911C117.891 538.022 130.141 550.272 145.252 550.272Z" fill="white"/>
<path d="M116.978 522.911V72.3819C116.986 64.8859 119.968 57.6993 125.268 52.3988C130.568 47.0984 137.755 44.1168 145.251 44.1084H760.599C768.095 44.1168 775.282 47.0984 780.582 52.3988C785.883 57.6993 788.864 64.8859 788.873 72.3819V522.911C788.864 530.407 785.883 537.594 780.582 542.894C775.282 548.195 768.095 551.176 760.599 551.185H145.251C137.755 551.176 130.568 548.195 125.268 542.894C119.968 537.594 116.986 530.407 116.978 522.911ZM145.251 45.9325C138.239 45.9407 131.516 48.73 126.558 53.6884C121.599 58.6469 118.81 65.3696 118.802 72.3819V522.911C118.81 529.923 121.599 536.646 126.557 541.605C131.516 546.563 138.239 549.352 145.251 549.36H760.599C767.612 549.353 774.335 546.564 779.293 541.605C784.252 536.647 787.041 529.923 787.049 522.911V72.3819C787.041 65.3695 784.251 58.6466 779.293 53.6881C774.334 48.7296 767.612 45.9405 760.599 45.9325H145.251Z" fill="#292A2E"/>
<path d="M117.891 72.379V99.911H787.958V72.379C787.958 65.1223 785.075 58.1628 779.944 53.0316C774.813 47.9003 767.853 45.0176 760.596 45.0176H145.252C137.995 45.0176 131.036 47.9003 125.904 53.0316C120.773 58.1628 117.891 65.1223 117.891 72.379Z" fill="#292A2E"/>
<path d="M751.756 126.073H490.666C484.257 126.073 479.062 131.269 479.062 137.677V322.374C479.062 328.783 484.257 333.978 490.666 333.978H751.756C758.165 333.978 763.36 328.783 763.36 322.374V137.677C763.36 131.269 758.165 126.073 751.756 126.073Z" fill="white"/>
<path opacity="0.15" d="M751.756 126.073H490.666C484.257 126.073 479.062 131.269 479.062 137.677V322.374C479.062 328.783 484.257 333.978 490.666 333.978H751.756C758.165 333.978 763.36 328.783 763.36 322.374V137.677C763.36 131.269 758.165 126.073 751.756 126.073Z" fill="#398414"/>
<path d="M530.092 152.017H507.527C506.478 152.017 505.629 152.866 505.629 153.915V306.137C505.629 307.186 506.478 308.035 507.527 308.035H530.092C531.14 308.035 531.99 307.186 531.99 306.137V153.915C531.99 152.866 531.14 152.017 530.092 152.017Z" fill="#FAFAFA"/>
<path opacity="0.6" d="M505.629 228.495H531.987V306.137C531.987 306.641 531.787 307.123 531.431 307.479C531.075 307.835 530.592 308.035 530.089 308.035H507.527C507.023 308.035 506.541 307.835 506.185 307.479C505.829 307.123 505.629 306.641 505.629 306.137V228.495Z" fill="#398414"/>
<path d="M581.292 152.017H558.727C557.679 152.017 556.829 152.866 556.829 153.915V306.137C556.829 307.186 557.679 308.035 558.727 308.035H581.292C582.34 308.035 583.19 307.186 583.19 306.137V153.915C583.19 152.866 582.34 152.017 581.292 152.017Z" fill="#FAFAFA"/>
<path opacity="0.6" d="M556.829 206.871H583.188V306.137C583.188 306.64 582.987 307.123 582.632 307.479C582.276 307.835 581.793 308.035 581.289 308.035H558.727C558.224 308.035 557.741 307.835 557.385 307.479C557.029 307.123 556.829 306.64 556.829 306.137V206.871Z" fill="#398414"/>
<path d="M734.895 152.017H712.33C711.282 152.017 710.432 152.866 710.432 153.915V306.137C710.432 307.186 711.282 308.035 712.33 308.035H734.895C735.943 308.035 736.793 307.186 736.793 306.137V153.915C736.793 152.866 735.943 152.017 734.895 152.017Z" fill="#FAFAFA"/>
<path opacity="0.6" d="M710.432 185.055H736.79V306.138C736.79 306.642 736.59 307.124 736.234 307.48C735.878 307.836 735.396 308.036 734.892 308.036H712.331C711.827 308.036 711.345 307.836 710.989 307.48C710.633 307.124 710.433 306.642 710.433 306.138V185.055H710.432Z" fill="#398414"/>
<path d="M632.494 152.017H609.929C608.881 152.017 608.031 152.866 608.031 153.915V306.137C608.031 307.186 608.881 308.035 609.929 308.035H632.494C633.542 308.035 634.392 307.186 634.392 306.137V153.915C634.392 152.866 633.542 152.017 632.494 152.017Z" fill="#FAFAFA"/>
<path opacity="0.6" d="M608.031 263.469H634.389V306.137C634.389 306.64 634.189 307.123 633.833 307.479C633.477 307.835 632.994 308.035 632.491 308.035H609.929C609.425 308.035 608.943 307.835 608.587 307.479C608.231 307.123 608.031 306.64 608.031 306.137V263.469Z" fill="#398414"/>
<path d="M683.694 152.017H661.129C660.081 152.017 659.231 152.866 659.231 153.915V306.137C659.231 307.186 660.081 308.035 661.129 308.035H683.694C684.743 308.035 685.592 307.186 685.592 306.137V153.915C685.592 152.866 684.743 152.017 683.694 152.017Z" fill="#FAFAFA"/>
<path opacity="0.6" d="M659.229 236.206H685.587V306.136C685.587 306.64 685.387 307.123 685.031 307.479C684.675 307.834 684.192 308.034 683.689 308.034H661.129C660.88 308.034 660.633 307.985 660.403 307.89C660.173 307.795 659.964 307.655 659.787 307.479C659.611 307.302 659.471 307.093 659.376 306.863C659.28 306.633 659.231 306.386 659.231 306.136V236.206H659.229Z" fill="#398414"/>
<path opacity="0.15" d="M746.749 354.329H492.532C483.358 354.329 475.921 361.766 475.921 370.94V508.596C475.921 517.77 483.358 525.208 492.532 525.208H746.749C755.923 525.208 763.36 517.77 763.36 508.596V370.94C763.36 361.766 755.923 354.329 746.749 354.329Z" fill="#398414"/>
<path d="M647.863 397.012C651.273 397.012 654.037 394.247 654.037 390.837C654.037 387.427 651.273 384.663 647.863 384.663C644.453 384.663 641.688 387.427 641.688 390.837C641.688 394.247 644.453 397.012 647.863 397.012Z" fill="#398414"/>
<path d="M647.863 428.488C651.273 428.488 654.037 425.723 654.037 422.313C654.037 418.903 651.273 416.138 647.863 416.138C644.453 416.138 641.688 418.903 641.688 422.313C641.688 425.723 644.453 428.488 647.863 428.488Z" fill="#262626"/>
<path d="M647.863 459.964C651.273 459.964 654.037 457.2 654.037 453.79C654.037 450.379 651.273 447.615 647.863 447.615C644.453 447.615 641.688 450.379 641.688 453.79C641.688 457.2 644.453 459.964 647.863 459.964Z" fill="white"/>
<path opacity="0.5" d="M647.863 491.44C651.273 491.44 654.037 488.675 654.037 485.265C654.037 481.855 651.273 479.091 647.863 479.091C644.453 479.091 641.688 481.855 641.688 485.265C641.688 488.675 644.453 491.44 647.863 491.44Z" fill="#398414"/>
<path d="M733.551 390.834C733.551 391.761 733.183 392.649 732.528 393.304C731.872 393.96 730.984 394.328 730.057 394.328H670.707C669.881 394.343 669.075 394.074 668.424 393.566C667.773 393.058 667.317 392.341 667.131 391.537C667.027 391.029 667.038 390.504 667.162 390C667.286 389.497 667.521 389.027 667.849 388.626C668.177 388.224 668.59 387.901 669.059 387.678C669.527 387.456 670.04 387.341 670.558 387.341H730.057C730.516 387.341 730.97 387.431 731.394 387.607C731.818 387.782 732.203 388.04 732.528 388.364C732.852 388.689 733.109 389.074 733.285 389.498C733.46 389.921 733.551 390.376 733.551 390.834Z" fill="white"/>
<path d="M733.551 422.312C733.551 423.238 733.183 424.127 732.527 424.782C731.872 425.437 730.984 425.805 730.057 425.805H670.742C670.258 425.812 669.777 425.722 669.328 425.541C668.879 425.359 668.471 425.088 668.128 424.746C667.785 424.404 667.515 423.996 667.332 423.547C667.15 423.099 667.059 422.618 667.066 422.133C667.113 421.239 667.501 420.396 668.151 419.78C668.801 419.163 669.662 418.82 670.558 418.82H730.057C730.516 418.82 730.97 418.91 731.394 419.085C731.818 419.261 732.203 419.518 732.527 419.842C732.852 420.167 733.109 420.552 733.285 420.975C733.46 421.399 733.551 421.853 733.551 422.312Z" fill="white"/>
<path d="M733.551 453.79C733.551 454.716 733.183 455.605 732.527 456.26C731.872 456.915 730.984 457.283 730.057 457.283H670.198C669.366 457.283 668.568 456.952 667.979 456.364C667.391 455.775 667.06 454.977 667.06 454.145V453.435C667.06 452.603 667.391 451.805 667.979 451.216C668.568 450.628 669.366 450.297 670.198 450.297H730.057C730.516 450.297 730.97 450.387 731.394 450.563C731.818 450.738 732.203 450.996 732.527 451.32C732.852 451.644 733.109 452.029 733.285 452.453C733.46 452.877 733.551 453.331 733.551 453.79Z" fill="white"/>
<path d="M733.551 485.267C733.551 486.193 733.183 487.082 732.527 487.737C731.872 488.392 730.984 488.76 730.057 488.76H670.721C669.894 488.776 669.086 488.508 668.433 488C667.78 487.493 667.32 486.777 667.131 485.972C667.027 485.464 667.037 484.939 667.161 484.436C667.286 483.933 667.52 483.463 667.848 483.061C668.176 482.66 668.589 482.336 669.057 482.114C669.526 481.892 670.038 481.777 670.556 481.777H730.056C730.514 481.776 730.969 481.866 731.392 482.041C731.816 482.217 732.202 482.474 732.526 482.798C732.851 483.122 733.108 483.507 733.284 483.931C733.46 484.354 733.55 484.808 733.551 485.267Z" fill="white"/>
<path d="M532.009 438.051C532.011 445.578 534.346 452.919 538.693 459.063C543.041 465.207 549.187 469.852 556.284 472.358L546.302 496.701C532.575 491.528 521.097 481.702 513.869 468.936C506.642 456.169 504.122 441.272 506.75 426.838C509.378 412.405 516.986 399.352 528.25 389.952C539.513 380.552 553.717 375.402 568.388 375.399V401.679C558.74 401.678 549.488 405.51 542.666 412.331C535.844 419.152 532.01 428.404 532.009 438.051Z" fill="#398414"/>
<path d="M631.046 438.051H604.766C604.766 428.403 600.933 419.151 594.111 412.329C587.289 405.506 578.036 401.674 568.389 401.673V375.394C585.006 375.394 600.944 381.995 612.694 393.746C624.445 405.496 631.046 421.433 631.046 438.051Z" fill="#262626"/>
<path d="M631.046 438.051C631.045 452.249 626.223 466.025 617.371 477.126C608.519 488.226 596.161 495.992 582.32 499.153L577.868 473.176C585.588 471.09 592.406 466.519 597.268 460.171C602.13 453.822 604.765 446.048 604.767 438.051H631.046Z" fill="white"/>
<path opacity="0.5" d="M582.319 499.153C570.332 501.869 557.811 501.016 546.302 496.699L556.284 472.358C563.232 474.797 570.754 475.083 577.868 473.179L582.319 499.153Z" fill="#398414"/>
<path opacity="0.15" d="M439.447 126.073H158.874C149.807 126.073 142.457 133.423 142.457 142.49V508.791C142.457 517.857 149.807 525.207 158.874 525.207H439.447C448.514 525.207 455.864 517.857 455.864 508.791V142.49C455.864 133.423 448.514 126.073 439.447 126.073Z" fill="#398414"/>
<path d="M383.955 281.847C383.955 300.06 378.555 317.864 368.436 333.007C358.318 348.151 343.936 359.953 327.11 366.923C310.284 373.893 291.769 375.717 273.906 372.164C256.043 368.611 239.635 359.841 226.756 346.962C213.878 334.084 205.108 317.676 201.555 299.813C198.001 281.951 199.825 263.435 206.795 246.609C213.764 229.783 225.567 215.401 240.71 205.282C255.854 195.164 273.657 189.763 291.87 189.763V281.847H383.955Z" fill="#FAFAFA"/>
<path opacity="0.6" d="M395.245 269.886H303.165V177.802C327.586 177.803 351.007 187.505 368.276 204.774C385.544 222.043 395.245 245.464 395.245 269.886Z" fill="#398414"/>
<path opacity="0.6" d="M196.384 426.17C199.794 426.17 202.559 423.406 202.559 419.995C202.559 416.585 199.794 413.821 196.384 413.821C192.974 413.821 190.209 416.585 190.209 419.995C190.209 423.406 192.974 426.17 196.384 426.17Z" fill="#398414"/>
<path d="M196.384 457.646C199.794 457.646 202.559 454.882 202.559 451.472C202.559 448.062 199.794 445.297 196.384 445.297C192.974 445.297 190.209 448.062 190.209 451.472C190.209 454.882 192.974 457.646 196.384 457.646Z" fill="#FAFAFA"/>
<path opacity="0.6" d="M407.934 419.998C407.934 420.925 407.566 421.813 406.911 422.468C406.255 423.123 405.367 423.491 404.441 423.491H219.228C218.402 423.506 217.596 423.237 216.945 422.729C216.294 422.221 215.837 421.504 215.651 420.7C215.548 420.191 215.559 419.667 215.683 419.163C215.807 418.66 216.042 418.19 216.37 417.789C216.698 417.387 217.112 417.063 217.58 416.841C218.049 416.619 218.561 416.504 219.079 416.504H404.441C404.899 416.504 405.354 416.595 405.778 416.77C406.201 416.946 406.587 417.203 406.911 417.528C407.235 417.852 407.493 418.237 407.668 418.661C407.844 419.085 407.934 419.539 407.934 419.998Z" fill="#398414"/>
<path d="M407.934 451.471C407.934 452.398 407.566 453.286 406.911 453.941C406.256 454.596 405.367 454.964 404.441 454.964H219.264C218.779 454.972 218.298 454.882 217.849 454.7C217.4 454.518 216.992 454.248 216.649 453.905C216.306 453.563 216.036 453.155 215.853 452.707C215.671 452.258 215.58 451.777 215.586 451.292C215.633 450.398 216.022 449.555 216.672 448.938C217.322 448.322 218.184 447.978 219.08 447.978H404.441C404.899 447.978 405.354 448.068 405.777 448.244C406.201 448.419 406.586 448.677 406.911 449.001C407.235 449.326 407.492 449.711 407.668 450.134C407.843 450.558 407.934 451.012 407.934 451.471Z" fill="white"/>
<path d="M115.698 781.679C115.599 781.68 115.502 781.66 115.411 781.622C115.32 781.585 115.237 781.529 115.168 781.46C114.111 780.403 112.39 761.023 107.752 703.321C105.854 679.71 104.061 657.408 102.753 643.855C102.662 642.887 102.284 642.774 102.161 642.738C100.371 642.198 94.925 646.492 91.8852 650.252C91.8232 650.329 91.7468 650.393 91.6603 650.44C91.5738 650.487 91.4788 650.516 91.3809 650.527C91.283 650.537 91.1839 650.528 91.0895 650.5C90.995 650.472 90.907 650.426 90.8304 650.364C90.7538 650.302 90.6901 650.226 90.6431 650.139C90.596 650.053 90.5664 649.958 90.5561 649.86C90.5457 649.762 90.5547 649.663 90.5826 649.568C90.6105 649.474 90.6567 649.386 90.7186 649.309C92.7251 646.823 99.2819 640.305 102.593 641.301C103.09 641.472 103.52 641.799 103.818 642.233C104.116 642.667 104.266 643.185 104.246 643.711C105.555 657.276 107.347 679.584 109.247 703.2C112.065 738.265 115.257 777.988 116.307 780.492C116.387 780.604 116.434 780.736 116.444 780.873C116.454 781.01 116.426 781.148 116.363 781.27C116.3 781.392 116.205 781.495 116.088 781.567C115.97 781.639 115.835 781.677 115.698 781.678V781.679Z" fill="#494949"/>
<path d="M100.829 668.726C113.27 658.754 117.393 643.232 110.039 634.057C102.685 624.882 86.6373 625.529 74.1963 635.501C61.7554 645.473 57.632 660.995 64.9863 670.17C72.3407 679.345 88.388 678.698 100.829 668.726Z" fill="#0CBC8B"/>
<path opacity="0.2" d="M100.829 668.726C113.27 658.754 117.393 643.232 110.039 634.057C102.685 624.882 86.6373 625.529 74.1963 635.501C61.7554 645.473 57.632 660.995 64.9863 670.17C72.3407 679.345 88.388 678.698 100.829 668.726Z" fill="white"/>
<path d="M68.472 672.503C68.4009 672.502 68.3314 672.482 68.2714 672.444C68.2114 672.406 68.1635 672.351 68.1333 672.287C68.1031 672.223 68.0918 672.151 68.1008 672.081C68.1097 672.01 68.1385 671.944 68.1838 671.889L103.64 629.132C103.703 629.055 103.795 629.007 103.894 628.998C103.993 628.989 104.091 629.019 104.168 629.083C104.244 629.146 104.293 629.237 104.302 629.337C104.311 629.436 104.281 629.534 104.217 629.611L68.7611 672.368C68.7259 672.41 68.6817 672.444 68.6317 672.468C68.5817 672.491 68.5272 672.503 68.472 672.503Z" fill="white"/>
<path d="M123.431 772.513C123.312 772.513 123.194 772.484 123.088 772.429C122.982 772.374 122.89 772.295 122.821 772.197C122.752 772.1 122.707 771.987 122.69 771.869C122.673 771.751 122.684 771.63 122.723 771.517L136.039 733.216C136.431 732.09 137.099 731.081 137.982 730.28C138.865 729.48 139.935 728.913 141.094 728.634C142.252 728.354 143.463 728.37 144.614 728.679C145.765 728.989 146.82 729.583 147.682 730.406L154.723 737.132C154.862 737.27 154.942 737.458 154.944 737.654C154.947 737.851 154.872 738.04 154.737 738.182C154.601 738.324 154.415 738.408 154.218 738.414C154.022 738.42 153.831 738.349 153.686 738.216L146.645 731.49C145.965 730.84 145.132 730.371 144.224 730.127C143.315 729.882 142.359 729.87 141.445 730.091C140.53 730.311 139.685 730.758 138.988 731.39C138.291 732.022 137.764 732.819 137.455 733.708L124.139 772.014C124.087 772.16 123.991 772.287 123.864 772.376C123.738 772.466 123.586 772.513 123.431 772.513Z" fill="#494949"/>
<path d="M174.394 758.336C183.613 751.038 183.065 734.987 173.17 722.485C163.274 709.983 147.778 705.765 138.558 713.063C129.338 720.361 129.886 736.411 139.782 748.913C149.677 761.415 165.174 765.634 174.394 758.336Z" fill="#0CBC8B"/>
<path d="M109.647 779.237C109.479 779.237 109.315 779.18 109.183 779.076C109.05 778.971 108.957 778.825 108.918 778.661L86.5725 685.211C86.4201 684.574 86.095 683.991 85.6328 683.527C85.1705 683.062 84.5892 682.734 83.9527 682.579C83.3162 682.424 82.6492 682.447 82.0251 682.646C81.401 682.846 80.8439 683.213 80.4153 683.709L73.5256 691.67C73.4622 691.748 73.3839 691.812 73.2953 691.859C73.2067 691.905 73.1096 691.934 73.0098 691.942C72.91 691.951 72.8094 691.94 72.7141 691.909C72.6188 691.878 72.5306 691.828 72.4548 691.763C72.3791 691.697 72.3172 691.617 72.2729 691.527C72.2286 691.437 72.2027 691.339 72.1968 691.239C72.191 691.139 72.2052 691.039 72.2387 690.945C72.2723 690.85 72.3244 690.764 72.392 690.69L79.2816 682.727C79.8909 682.024 80.6826 681.502 81.5694 681.219C82.4562 680.936 83.4038 680.903 84.3081 681.124C85.2125 681.344 86.0384 681.81 86.6952 682.47C87.352 683.129 87.8141 683.957 88.0309 684.863L110.376 778.313C110.399 778.409 110.403 778.508 110.387 778.605C110.372 778.702 110.337 778.795 110.286 778.879C110.234 778.963 110.167 779.036 110.087 779.094C110.008 779.152 109.917 779.193 109.822 779.216C109.765 779.23 109.706 779.237 109.647 779.237Z" fill="#494949"/>
<path d="M101.401 712.435C104.118 696.724 96.9273 682.363 85.3406 680.359C73.754 678.356 62.1587 689.468 59.4417 705.179C56.7248 720.89 63.9152 735.251 75.5018 737.255C87.0885 739.259 98.6838 728.146 101.401 712.435Z" fill="#0CBC8B"/>
<path d="M115.699 781.679C115.668 781.679 115.638 781.678 115.608 781.674C115.41 781.65 115.231 781.548 115.108 781.391C114.986 781.235 114.931 781.036 114.955 780.839L129.226 664.962C129.382 663.7 129.898 662.509 130.714 661.533C131.53 660.558 132.61 659.838 133.825 659.462C135.04 659.086 136.338 659.068 137.562 659.412C138.787 659.755 139.886 660.445 140.728 661.398L157.041 679.874C157.106 679.948 157.156 680.034 157.188 680.127C157.22 680.22 157.234 680.318 157.228 680.417C157.222 680.515 157.196 680.611 157.153 680.699C157.11 680.788 157.05 680.867 156.976 680.932C156.902 680.997 156.816 681.048 156.723 681.08C156.63 681.112 156.531 681.125 156.433 681.119C156.335 681.113 156.239 681.087 156.15 681.044C156.062 681.001 155.983 680.941 155.917 680.867L139.605 662.392C138.954 661.655 138.104 661.122 137.158 660.856C136.212 660.59 135.209 660.604 134.27 660.895C133.331 661.185 132.496 661.741 131.865 662.495C131.235 663.249 130.835 664.169 130.715 665.144L116.442 781.021C116.42 781.202 116.332 781.37 116.195 781.491C116.058 781.612 115.882 781.679 115.699 781.679Z" fill="#494949"/>
<path d="M173.77 690.141C179.462 679.852 172.765 665.254 158.813 657.537C144.861 649.819 128.936 651.904 123.245 662.193C117.553 672.483 124.25 687.08 138.202 694.798C152.154 702.516 168.079 700.431 173.77 690.141Z" fill="#0CBC8B"/>
<path opacity="0.2" d="M174.394 758.336C183.613 751.038 183.065 734.987 173.17 722.485C163.274 709.983 147.778 705.765 138.558 713.063C129.338 720.361 129.886 736.411 139.782 748.913C149.677 761.415 165.174 765.634 174.394 758.336Z" fill="white"/>
<path opacity="0.5" d="M101.401 712.435C104.118 696.724 96.9273 682.363 85.3406 680.359C73.754 678.356 62.1587 689.468 59.4417 705.179C56.7248 720.89 63.9152 735.251 75.5018 737.255C87.0885 739.259 98.6838 728.146 101.401 712.435Z" fill="white"/>
<path opacity="0.5" d="M173.77 690.141C179.462 679.852 172.765 665.254 158.813 657.537C144.861 649.819 128.936 651.904 123.245 662.193C117.553 672.483 124.25 687.08 138.202 694.798C152.154 702.516 168.079 700.431 173.77 690.141Z" fill="white"/>
<path d="M133.952 880H97.4432L91.3936 763.189H140.002L133.952 880Z" fill="#292A2E"/>
<path opacity="0.3" d="M133.952 880H97.4432L91.3936 763.189H140.002L133.952 880Z" fill="white"/>
<path d="M174.397 758.708C174.341 758.709 174.285 758.696 174.234 758.671C174.182 758.647 174.138 758.611 174.103 758.566L138.267 713.293C138.236 713.254 138.213 713.21 138.2 713.163C138.186 713.116 138.182 713.066 138.188 713.017C138.193 712.968 138.209 712.921 138.233 712.878C138.256 712.835 138.289 712.797 138.327 712.766C138.366 712.736 138.41 712.713 138.457 712.699C138.505 712.686 138.554 712.682 138.603 712.688C138.652 712.693 138.699 712.708 138.742 712.732C138.785 712.756 138.823 712.788 138.854 712.827L174.691 758.101C174.753 758.179 174.781 758.278 174.769 758.377C174.757 758.476 174.707 758.566 174.629 758.627C174.563 758.68 174.482 758.709 174.397 758.708Z" fill="white"/>
<path d="M171.387 693.769C171.308 693.769 171.231 693.744 171.167 693.697L125.309 660.212C125.268 660.184 125.232 660.147 125.205 660.105C125.178 660.063 125.16 660.016 125.152 659.966C125.143 659.917 125.145 659.866 125.156 659.817C125.168 659.769 125.189 659.723 125.218 659.682C125.248 659.642 125.285 659.607 125.328 659.582C125.371 659.556 125.419 659.539 125.468 659.532C125.518 659.525 125.568 659.528 125.617 659.541C125.665 659.553 125.711 659.576 125.75 659.606L171.609 693.091C171.673 693.138 171.721 693.204 171.745 693.279C171.769 693.354 171.769 693.435 171.744 693.511C171.72 693.586 171.672 693.651 171.608 693.698C171.544 693.744 171.467 693.769 171.387 693.769Z" fill="white"/>
<path d="M73.6424 736.764C73.6095 736.765 73.5766 736.76 73.5449 736.752C73.4494 736.726 73.368 736.664 73.3183 736.578C73.2686 736.493 73.2547 736.391 73.2794 736.296L87.8777 681.6C87.9042 681.505 87.9667 681.424 88.0518 681.375C88.137 681.325 88.2381 681.311 88.3337 681.335C88.4293 681.36 88.5108 681.422 88.5606 681.508C88.6103 681.593 88.6242 681.695 88.5991 681.791L74.0036 736.486C73.9825 736.566 73.9356 736.636 73.8703 736.687C73.805 736.737 73.7249 736.764 73.6424 736.764Z" fill="white"/>
<path d="M818.534 880H70.2725C70.1031 880 69.9408 879.933 69.821 879.813C69.7013 879.693 69.634 879.531 69.634 879.362C69.634 879.192 69.7013 879.03 69.821 878.91C69.9408 878.79 70.1031 878.723 70.2725 878.723H818.534C818.704 878.723 818.866 878.79 818.986 878.91C819.106 879.03 819.173 879.192 819.173 879.362C819.173 879.531 819.106 879.693 818.986 879.813C818.866 879.933 818.704 880 818.534 880Z" fill="#292A2E"/>
<path d="M260.641 839.073C260.641 839.073 264.759 860.419 284.741 861.612C304.724 862.805 300.393 878.723 300.393 878.723H224.022V840.562L260.641 839.073Z" fill="#398414"/>
<path d="M218.842 449.692C218.842 449.692 224.554 443.276 224.503 457.831C224.315 512.124 220.651 852.696 220.651 852.696L270.837 852.275L301.239 447.486L218.842 449.692Z" fill="#262626"/>
<path d="M346.338 839.073C346.338 839.073 350.456 860.419 370.441 861.609C390.427 862.798 386.093 878.719 386.093 878.719H309.719V840.562L346.338 839.073Z" fill="#398414"/>
<path d="M356.045 453.908C356.045 453.908 362.314 639.47 361.663 648.539L355.767 851.288L306.41 852.2L298.451 641.203C298.451 641.203 293.235 583.001 279.172 528.954C271.977 501.216 267.647 472.813 266.25 444.19L356.045 453.908Z" fill="#262626"/>
<path d="M290.932 585.471L295.047 522.532C295.047 522.532 299.274 548.697 299.274 571.251C299.274 582.275 297.004 625.921 297.004 625.921L290.932 585.471Z" fill="#2F3033"/>
<path d="M218.297 449.687L218.133 449.696C218.133 449.696 218.253 446.531 218.297 449.687Z" fill="#333333"/>
<path d="M218.503 449.687L218.339 449.696C218.339 449.696 218.457 446.531 218.503 449.687Z" fill="#333333"/>
<path d="M493.509 299.072C493.207 298.474 492.726 297.984 492.134 297.67C491.541 297.356 490.866 297.234 490.2 297.32C490.206 297.261 490.194 297.202 490.164 297.151C490.133 297.111 490.092 297.08 490.045 297.061C489.999 297.042 489.948 297.035 489.898 297.042L492.142 295.433C492.814 294.974 493.297 294.287 493.501 293.498C493.706 292.71 493.617 291.875 493.253 291.147C492.871 290.439 492.239 289.899 491.481 289.63C490.722 289.362 489.891 289.386 489.149 289.696C489.155 289.664 489.133 289.634 489.129 289.605L490.051 288.944C490.682 288.508 491.143 287.868 491.356 287.131C491.569 286.395 491.521 285.607 491.22 284.902C491.022 284.464 490.73 284.075 490.363 283.764C489.997 283.452 489.566 283.226 489.102 283.101C488.638 282.976 488.151 282.956 487.678 283.042C487.205 283.128 486.757 283.317 486.366 283.597L484.238 285.123C484.232 285.11 484.238 285.095 484.23 285.084C484.222 285.072 484.198 285.067 484.186 285.054C484.675 284.505 484.962 283.805 485.001 283.071C485.04 282.336 484.828 281.61 484.4 281.012C483.397 279.396 481.077 279.727 479.701 280.713L467.177 289.364L469.415 285.595C469.865 284.87 470.023 284.001 469.858 283.163C469.692 282.325 469.216 281.582 468.524 281.081C468.157 280.836 467.745 280.668 467.311 280.588C466.877 280.507 466.432 280.516 466.002 280.614C465.572 280.711 465.166 280.895 464.809 281.154C464.452 281.414 464.152 281.743 463.927 282.122L451.706 302.7C450.272 305.114 449.835 307.992 450.489 310.723C451.143 313.453 452.836 315.821 455.209 317.324C457.96 319.066 461.169 319.947 464.424 319.853C467.68 319.76 470.833 318.696 473.48 316.799L492.393 303.241C493.022 302.774 493.474 302.108 493.677 301.351C493.879 300.595 493.82 299.792 493.509 299.072Z" fill="#E98862"/>
<g opacity="0.25">
<path d="M471.845 293.671C471.89 293.735 471.959 293.778 472.036 293.791C472.113 293.804 472.193 293.786 472.257 293.742L484.157 285.499C484.19 285.477 484.217 285.448 484.239 285.415C484.26 285.382 484.274 285.345 484.281 285.307C484.288 285.268 484.288 285.228 484.279 285.19C484.271 285.151 484.255 285.115 484.233 285.083C484.211 285.05 484.182 285.023 484.149 285.001C484.116 284.98 484.079 284.965 484.04 284.958C484.002 284.951 483.962 284.952 483.923 284.96C483.885 284.969 483.848 284.984 483.816 285.007L471.916 293.249C471.851 293.294 471.806 293.364 471.792 293.442C471.778 293.52 471.795 293.601 471.84 293.666L471.845 293.671Z" fill="#2F3033"/>
</g>
<g opacity="0.25">
<path d="M475.335 299.021C475.381 299.084 475.45 299.127 475.527 299.14C475.604 299.153 475.683 299.135 475.747 299.09L489.028 289.892C489.094 289.847 489.138 289.777 489.152 289.699C489.166 289.621 489.148 289.54 489.103 289.475C489.056 289.412 488.987 289.369 488.91 289.355C488.832 289.341 488.753 289.357 488.686 289.4L475.406 298.598C475.341 298.643 475.296 298.712 475.282 298.791C475.268 298.869 475.285 298.95 475.33 299.015L475.335 299.021Z" fill="#2F3033"/>
</g>
<g opacity="0.25">
<path d="M479.082 304.835C479.128 304.898 479.196 304.941 479.274 304.954C479.351 304.967 479.43 304.95 479.494 304.905L490.088 297.568C490.154 297.523 490.198 297.453 490.212 297.375C490.227 297.297 490.209 297.216 490.164 297.151C490.119 297.086 490.049 297.041 489.971 297.027C489.893 297.013 489.812 297.03 489.747 297.075L479.153 304.413C479.088 304.458 479.043 304.527 479.029 304.605C479.015 304.684 479.032 304.764 479.077 304.83L479.082 304.835Z" fill="#2F3033"/>
</g>
<path d="M444.493 298.013L408.598 359.149L364.796 301.697L328.419 334.492L390.539 414.945L390.946 415.517C393.432 418.923 396.745 421.639 400.572 423.411C404.399 425.182 408.613 425.95 412.819 425.642C417.024 425.334 421.082 423.961 424.61 421.651C428.138 419.341 431.02 416.171 432.984 412.44L484.029 320L444.493 298.013Z" fill="#398414"/>
<path d="M405.077 366.501C404.999 366.502 404.922 366.482 404.854 366.443C404.786 366.405 404.728 366.35 404.687 366.284C404.647 366.217 404.624 366.141 404.621 366.063C404.618 365.985 404.635 365.907 404.67 365.837L408.19 358.941C408.245 358.834 408.341 358.752 408.456 358.715C408.571 358.678 408.696 358.688 408.804 358.744C408.911 358.799 408.993 358.894 409.03 359.009C409.067 359.125 409.057 359.25 409.002 359.357L405.483 366.252C405.445 366.327 405.387 366.39 405.315 366.434C405.244 366.478 405.161 366.501 405.077 366.501Z" fill="#2F3033"/>
<path d="M362.268 358.8L361.172 378.11L362.083 378.162L363.179 358.852L362.268 358.8Z" fill="#2F3033"/>
<path d="M246.6 219.053C246.6 219.053 244.918 240.547 239.988 248.294C225.796 270.6 221.467 295.828 235.266 309.193C249.064 322.558 338.05 323.777 345.143 293.479C351.114 267.976 338.966 265.086 336.247 243.955C335.016 234.395 331.56 214.34 331.56 214.34" fill="#2F3033"/>
<path d="M322.489 288.637C322.336 288.617 320.631 316.903 287.771 314.437C265.023 312.733 256.911 288.597 256.391 288.597C258.843 288.076 262.974 287.32 264.063 286.736C267.644 284.812 272.077 282.809 273.231 275.853C273.897 271.84 272.768 251.332 273.116 247.275L308.034 255.069C307.546 263.636 304.132 283.498 316.101 287.014C318.092 287.595 320.238 288.129 322.489 288.637Z" fill="#E98862"/>
<path opacity="0.52" d="M308.524 278.896C307.977 277.134 307.625 275.316 307.473 273.477C307.089 269.28 307.166 265.053 307.701 260.872C300.604 259.914 293.918 256.984 288.403 252.416C287.754 254.811 284.188 265.276 285.176 267.55C287.042 271.852 295.812 278.896 308.524 278.896Z" fill="#2F3033"/>
<path d="M303.895 269.994C290.114 271.166 272.365 265.454 268.888 247.079L265.75 230.499C262.272 212.124 269.104 195.401 286.406 192.127C303.707 188.853 319.458 201.301 322.935 219.676L324.324 227.017C325.66 234.067 328.485 267.902 303.895 269.994Z" fill="#E98862"/>
<path d="M319.394 227.816C320.592 227.816 321.563 226.845 321.563 225.647C321.563 224.45 320.592 223.479 319.394 223.479C318.196 223.479 317.225 224.45 317.225 225.647C317.225 226.845 318.196 227.816 319.394 227.816Z" fill="#2F3033"/>
<path d="M297.175 230.785C298.373 230.785 299.344 229.814 299.344 228.616C299.344 227.418 298.373 226.447 297.175 226.447C295.978 226.447 295.007 227.418 295.007 228.616C295.007 229.814 295.978 230.785 297.175 230.785Z" fill="#2F3033"/>
<path opacity="0.52" d="M309.367 244.52L309.401 244.515C310.101 244.377 310.794 244.201 311.475 243.987C312.492 243.659 313.825 243.119 313.652 242.199C313.454 241.152 308.447 230.398 307.877 229.176C307.853 229.123 307.819 229.075 307.776 229.035C307.733 228.995 307.682 228.964 307.627 228.944C307.572 228.923 307.514 228.914 307.455 228.916C307.396 228.919 307.339 228.933 307.286 228.957C307.233 228.982 307.185 229.017 307.145 229.061C307.106 229.104 307.075 229.155 307.055 229.21C307.035 229.265 307.027 229.323 307.03 229.382C307.032 229.441 307.047 229.498 307.072 229.551C309.207 234.131 312.645 241.659 312.778 242.364C312.664 242.692 310.975 243.312 309.235 243.641C309.121 243.661 309.019 243.725 308.952 243.819C308.884 243.913 308.855 244.03 308.873 244.144C308.89 244.259 308.951 244.362 309.043 244.433C309.136 244.503 309.252 244.534 309.367 244.52V244.52Z" fill="#2F3033"/>
<path opacity="0.52" d="M306.807 252.449C309.629 252.082 312.325 251.058 314.679 249.458C314.777 249.394 314.846 249.293 314.871 249.177C314.895 249.062 314.872 248.942 314.808 248.843C314.744 248.745 314.643 248.675 314.528 248.651C314.412 248.627 314.292 248.649 314.193 248.714C309.101 252.032 304.04 252.569 299.559 250.264C299.468 250.215 299.375 250.171 299.28 250.131C299.169 250.091 299.046 250.097 298.94 250.147C298.833 250.197 298.751 250.287 298.71 250.398C298.67 250.509 298.676 250.631 298.726 250.738C298.776 250.845 298.867 250.927 298.978 250.967C299.012 250.982 299.069 251.013 299.152 251.059C301.508 252.273 304.174 252.757 306.807 252.449Z" fill="#2F3033"/>
<path d="M251.908 236.276L267.418 233.433C279.163 228.68 282.716 208.347 282.716 208.347C282.716 208.347 296.983 222.253 331.558 214.343C331.558 214.343 324.626 166.125 273.546 180.142C257.075 184.663 245.254 201.26 246.727 223.442C247.761 238.991 251.908 236.276 251.908 236.276Z" fill="#2F3033"/>
<path d="M271.022 252.474C265.765 253.469 260.438 248.65 259.439 243.392C258.441 238.134 262.158 234.429 267.416 233.434L270.791 236.443L275.539 251.618L271.022 252.474Z" fill="#E98862"/>
<path d="M311.048 220.384C312.581 219.393 314.353 218.833 316.177 218.764C317.075 218.723 317.974 218.818 318.844 219.046C319.705 219.267 320.535 219.596 321.315 220.024C321.424 220.079 321.509 220.174 321.548 220.29C321.588 220.405 321.581 220.532 321.528 220.642C321.475 220.753 321.38 220.838 321.265 220.879C321.149 220.919 321.022 220.913 320.911 220.861L320.879 220.845C320.158 220.491 319.396 220.229 318.61 220.065C317.834 219.899 317.037 219.851 316.246 219.923C314.678 220.054 313.172 220.598 311.881 221.5L311.839 221.531C311.765 221.585 311.681 221.624 311.592 221.645C311.503 221.667 311.41 221.67 311.32 221.656C311.229 221.642 311.143 221.61 311.064 221.562C310.986 221.514 310.918 221.451 310.864 221.377C310.81 221.303 310.772 221.219 310.75 221.13C310.729 221.041 310.725 220.948 310.74 220.858C310.754 220.767 310.786 220.68 310.834 220.602C310.882 220.524 310.944 220.456 311.018 220.402L311.048 220.384Z" fill="#2F3033"/>
<path d="M297.216 223.64C295.687 223.265 294.086 223.302 292.576 223.747C291.812 223.965 291.086 224.297 290.422 224.732C289.749 225.171 289.133 225.692 288.589 226.283L288.565 226.308C288.48 226.393 288.365 226.442 288.244 226.444C288.124 226.446 288.007 226.401 287.919 226.319C287.831 226.237 287.779 226.124 287.772 226.004C287.766 225.883 287.807 225.765 287.886 225.675C288.458 224.993 289.113 224.387 289.837 223.87C290.566 223.343 291.369 222.93 292.221 222.643C293.948 222.049 295.802 221.931 297.59 222.3C297.772 222.339 297.93 222.448 298.031 222.604C298.132 222.76 298.167 222.949 298.128 223.131C298.089 223.312 297.979 223.471 297.823 223.572C297.668 223.672 297.478 223.707 297.297 223.668L297.268 223.661L297.216 223.64Z" fill="#2F3033"/>
<path opacity="0.52" d="M307.407 256.621C307.918 256.563 308.423 256.461 308.917 256.318C309.031 256.285 309.126 256.209 309.183 256.106C309.241 256.003 309.254 255.881 309.222 255.768C309.189 255.654 309.113 255.559 309.01 255.502C308.907 255.444 308.785 255.431 308.672 255.463C305.698 256.32 304.007 255.19 303.937 255.137C303.84 255.069 303.72 255.042 303.604 255.063C303.487 255.083 303.384 255.149 303.316 255.246C303.249 255.343 303.222 255.463 303.243 255.579C303.263 255.695 303.329 255.799 303.426 255.866C304.626 256.571 306.032 256.837 307.407 256.621Z" fill="#2F3033"/>
<path d="M267.454 233.237L267.3 232.807C286.95 225.753 282.144 206.47 282.094 206.276L282.534 206.16C282.586 206.358 287.501 226.04 267.454 233.237Z" fill="#2F3033"/>
<path opacity="0.1" d="M295.353 245.798C297.621 245.554 299.314 244.007 299.135 242.343C298.956 240.679 296.972 239.529 294.704 239.773C292.436 240.017 290.743 241.564 290.922 243.227C291.101 244.891 293.085 246.042 295.353 245.798Z" fill="#2F3033"/>
<path opacity="0.1" d="M319.439 239.504C319.621 241.166 321.606 242.315 323.875 242.074C324.267 242.031 324.654 241.948 325.029 241.826C325.156 239.849 325.185 237.946 325.147 236.183C324.52 236.019 323.868 235.973 323.224 236.048C320.954 236.288 319.262 237.835 319.439 239.504Z" fill="#2F3033"/>
<path d="M363.315 350.909C362.28 363.068 357.246 438.931 356.251 453.908H224.576C223.801 440.4 214.85 381.331 211.913 354.916C209.108 329.708 203.606 317.088 207.639 309.636C214.229 297.457 232.238 290.418 244.518 288.756C252.017 287.741 263.295 287.014 263.295 287.014C263.295 287.014 264.25 306.331 287.02 307.406C318.016 308.865 315.946 287.014 316.1 287.014C321.121 287.014 349.807 290.192 356.825 294.352C375.946 305.677 365.512 325.145 363.315 350.909Z" fill="#398414"/>
<path d="M448.785 359.404L436.092 421.093C435.836 422.346 435.158 423.473 434.171 424.286C433.184 425.099 431.948 425.549 430.669 425.562L343.271 426.306C342.438 426.313 341.613 426.134 340.858 425.781C340.102 425.428 339.435 424.91 338.906 424.266C338.376 423.622 337.997 422.868 337.797 422.059C337.597 421.249 337.58 420.406 337.748 419.589L350.44 357.898C350.698 356.645 351.378 355.519 352.365 354.707C353.353 353.894 354.59 353.445 355.869 353.434L443.267 352.69C444.099 352.684 444.923 352.864 445.678 353.217C446.432 353.57 447.098 354.087 447.627 354.731C448.156 355.374 448.535 356.128 448.735 356.936C448.935 357.745 448.953 358.588 448.785 359.404Z" fill="#292A2E"/>
<path d="M367.288 403.223C367.335 404.035 367.086 404.837 366.589 405.481C366.091 406.124 365.377 406.566 364.579 406.725L361.889 407.318C361.937 407.334 361.98 407.362 362.015 407.398C362.05 407.435 362.076 407.479 362.09 407.528C362.096 407.585 362.083 407.643 362.053 407.692C362.7 407.874 363.274 408.253 363.696 408.776C364.117 409.299 364.366 409.94 364.406 410.611C364.41 411.392 364.15 412.153 363.668 412.768C363.187 413.384 362.512 413.819 361.752 414.004L339.033 419.047C337.872 419.308 336.685 419.44 335.494 419.439C332.843 419.439 330.231 418.794 327.884 417.559C325.537 416.325 323.526 414.538 322.023 412.353C320.43 410.041 319.802 407.199 320.272 404.431C320.742 401.663 322.273 399.188 324.541 397.532L343.867 383.404C344.292 383.093 344.787 382.89 345.308 382.812L343.529 391.449L344.004 391.339L344.104 391.321L358.925 388.302C360.576 387.937 362.837 388.539 363.129 390.418C363.286 391.137 363.194 391.888 362.87 392.549C362.545 393.21 362.007 393.741 361.342 394.057C361.351 394.066 361.369 394.075 361.369 394.094C361.369 394.112 361.36 394.121 361.36 394.139L363.923 393.574C364.392 393.47 364.878 393.471 365.346 393.578C365.814 393.684 366.253 393.893 366.631 394.19C367.009 394.486 367.316 394.863 367.531 395.293C367.745 395.723 367.862 396.194 367.872 396.675C367.872 397.441 367.607 398.184 367.121 398.778C366.636 399.371 365.96 399.779 365.209 399.931L364.105 400.177C364.096 400.213 364.105 400.25 364.087 400.277C364.891 400.283 365.664 400.588 366.256 401.133C366.848 401.677 367.216 402.422 367.288 403.223Z" fill="#E98862"/>
<g opacity="0.25">
<path d="M346.607 397.134C346.624 397.21 346.671 397.276 346.737 397.318C346.802 397.361 346.882 397.376 346.959 397.36L361.139 394.451C361.178 394.443 361.214 394.428 361.247 394.406C361.279 394.384 361.307 394.356 361.329 394.323C361.351 394.29 361.366 394.253 361.373 394.215C361.38 394.176 361.38 394.136 361.372 394.098C361.364 394.059 361.349 394.023 361.327 393.99C361.305 393.958 361.277 393.93 361.244 393.908C361.211 393.886 361.174 393.871 361.136 393.864C361.097 393.857 361.057 393.857 361.019 393.865L346.838 396.772C346.76 396.788 346.692 396.835 346.648 396.901C346.605 396.967 346.589 397.048 346.605 397.126L346.607 397.134Z" fill="#2F3033"/>
</g>
<g opacity="0.25">
<path d="M347.717 403.423C347.734 403.499 347.781 403.565 347.847 403.607C347.912 403.65 347.992 403.665 348.069 403.649L363.895 400.404C363.972 400.388 364.04 400.341 364.084 400.275C364.128 400.209 364.144 400.128 364.128 400.05C364.109 399.974 364.063 399.907 363.997 399.864C363.931 399.82 363.852 399.804 363.774 399.817L347.946 403.063C347.908 403.07 347.871 403.086 347.839 403.108C347.806 403.13 347.778 403.158 347.757 403.191C347.735 403.223 347.72 403.26 347.712 403.299C347.705 403.337 347.705 403.377 347.713 403.415L347.717 403.423Z" fill="#2F3033"/>
</g>
<g opacity="0.25">
<path d="M348.879 410.24C348.897 410.316 348.944 410.382 349.01 410.424C349.075 410.466 349.155 410.481 349.232 410.466L361.855 407.877C361.894 407.869 361.93 407.853 361.963 407.831C361.995 407.809 362.023 407.781 362.045 407.748C362.067 407.715 362.081 407.678 362.089 407.64C362.096 407.601 362.096 407.562 362.088 407.523C362.08 407.485 362.065 407.448 362.043 407.415C362.021 407.383 361.993 407.355 361.96 407.333C361.927 407.312 361.89 407.297 361.852 407.289C361.813 407.282 361.773 407.282 361.735 407.29L349.111 409.878C349.033 409.894 348.965 409.941 348.921 410.007C348.877 410.073 348.862 410.154 348.878 410.232L348.879 410.24Z" fill="#2F3033"/>
</g>
<path d="M337.627 428.037L214.368 450.312C210.522 450.729 206.631 450.25 203.002 448.912C199.372 447.574 196.102 445.413 193.447 442.599C190.793 439.785 188.827 436.394 187.703 432.692C186.579 428.99 186.328 425.079 186.97 421.264L204.22 318.697C204.764 315.453 205.941 312.347 207.685 309.557C209.43 306.768 211.706 304.349 214.386 302.44C217.065 300.531 220.094 299.168 223.301 298.43C226.507 297.693 229.827 297.594 233.071 298.14C236.316 298.685 239.421 299.865 242.209 301.612C244.997 303.358 247.414 305.637 249.321 308.317C251.228 310.998 252.588 314.029 253.324 317.235C254.059 320.442 254.155 323.762 253.607 327.006L241.841 397.612L332.208 386.264L337.627 428.037Z" fill="#398414"/>
<path d="M214.367 450.767C214.253 450.767 214.144 450.724 214.06 450.647C213.976 450.571 213.924 450.465 213.914 450.352C213.904 450.238 213.936 450.125 214.005 450.035C214.074 449.944 214.175 449.883 214.287 449.863L337.119 427.665L331.814 386.773L241.898 398.065C241.828 398.074 241.756 398.067 241.689 398.043C241.622 398.019 241.561 397.98 241.512 397.929C241.463 397.878 241.426 397.815 241.405 397.748C241.384 397.68 241.379 397.608 241.391 397.537L248.87 352.411C248.879 352.352 248.9 352.295 248.931 352.244C248.963 352.193 249.004 352.148 249.053 352.113C249.102 352.078 249.157 352.054 249.216 352.04C249.274 352.027 249.335 352.026 249.394 352.036C249.453 352.046 249.51 352.067 249.561 352.099C249.612 352.131 249.656 352.172 249.691 352.221C249.726 352.269 249.751 352.324 249.764 352.383C249.778 352.441 249.78 352.502 249.77 352.561L242.39 397.083L332.15 385.81C332.269 385.795 332.39 385.828 332.486 385.902C332.581 385.976 332.643 386.085 332.659 386.204L338.078 427.976C338.093 428.092 338.063 428.21 337.994 428.304C337.925 428.398 337.822 428.463 337.707 428.483L214.449 450.76C214.422 450.765 214.394 450.767 214.367 450.767Z" fill="#2F3033"/>
<path d="M241.771 397.163L233.843 398.432L233.987 399.333L241.916 398.064L241.771 397.163Z" fill="#2F3033"/>
<path d="M856.299 504.593H586.557C575.353 504.593 566.27 513.676 566.27 524.88V617.239C566.27 628.443 575.353 637.526 586.557 637.526H856.299C867.504 637.526 876.587 628.443 876.587 617.239V524.88C876.587 513.676 867.504 504.593 856.299 504.593Z" fill="white"/>
<path opacity="0.4" d="M856.299 504.593H586.557C575.353 504.593 566.27 513.676 566.27 524.88V617.239C566.27 628.443 575.353 637.526 586.557 637.526H856.299C867.504 637.526 876.587 628.443 876.587 617.239V524.88C876.587 513.676 867.504 504.593 856.299 504.593Z" fill="#398414"/>
<path d="M856.299 638.434H586.557C580.937 638.427 575.549 636.192 571.574 632.217C567.6 628.243 565.364 622.855 565.358 617.234V524.884C565.364 519.263 567.6 513.875 571.574 509.901C575.549 505.926 580.937 503.691 586.557 503.684H856.299C861.92 503.691 867.308 505.926 871.283 509.901C875.257 513.875 877.493 519.263 877.499 524.884V617.238C877.492 622.858 875.256 628.245 871.281 632.219C867.307 636.192 861.919 638.427 856.299 638.434ZM586.557 505.505C581.42 505.51 576.495 507.554 572.862 511.187C569.23 514.82 567.187 519.746 567.182 524.884V617.238C567.189 622.374 569.232 627.298 572.865 630.93C576.497 634.561 581.421 636.604 586.557 636.61H856.299C861.436 636.604 866.361 634.561 869.994 630.928C873.626 627.296 875.669 622.371 875.675 617.234V524.884C875.669 519.747 873.626 514.822 869.994 511.19C866.361 507.557 861.436 505.514 856.299 505.508L586.557 505.505Z" fill="#292A2E"/>
<path d="M594.096 609.202C593.851 609.202 593.61 609.136 593.398 609.01C593.187 608.885 593.013 608.705 592.896 608.489C592.778 608.274 592.72 608.03 592.729 607.785C592.738 607.539 592.813 607.301 592.945 607.094C593.242 606.638 623.053 561.055 670.429 561.055C695.183 561.055 710.182 570.607 724.688 579.843C738.114 588.394 750.797 596.472 770.422 596.472C810.546 596.472 842.869 538.2 843.19 537.612C843.364 537.293 843.657 537.057 844.005 536.955C844.354 536.853 844.728 536.893 845.047 537.067C845.365 537.241 845.601 537.535 845.703 537.883C845.806 538.231 845.765 538.606 845.591 538.924C844.246 541.387 812.153 599.21 770.422 599.21C750 599.21 736.991 590.925 723.218 582.155C709.043 573.126 694.386 563.793 670.429 563.793C624.567 563.793 595.537 608.127 595.248 608.574C595.124 608.767 594.954 608.926 594.753 609.035C594.551 609.145 594.326 609.202 594.096 609.202Z" fill="white"/>
<path d="M844.774 543.624C847.731 543.624 850.128 541.227 850.128 538.27C850.128 535.313 847.731 532.916 844.774 532.916C841.817 532.916 839.42 535.313 839.42 538.27C839.42 541.227 841.817 543.624 844.774 543.624Z" fill="white"/>
</g>
<defs>
<clipPath id="clip0_85_130">
<rect width="877.499" height="880" fill="white"/>
</clipPath>
</defs>
</svg>
	