<svg width="28" height="28" viewBox="0 0 28 28" fill="none" xmlns="http://www.w3.org/2000/svg">
<g clip-path="url(#clip0_90_251)">
<path d="M3.19459 14.8658H18.3553C18.8392 14.8658 19.2303 14.4738 19.2303 13.9908C19.2303 13.5078 18.8392 13.1158 18.3553 13.1158H3.24928L6.41459 9.9505C6.75628 9.60881 6.75628 9.05494 6.41459 8.71325C6.07291 8.37156 5.51903 8.37156 5.17734 8.71325L0.00915527 14.0179L5.17734 19.3226C5.34841 19.4937 5.57197 19.579 5.79597 19.579C6.01997 19.579 6.24353 19.4937 6.41459 19.3226C6.75628 18.9809 6.75628 18.4271 6.41459 18.0854L3.19459 14.8658ZM26.2408 0H11.3658C10.3989 0 9.61575 0.783562 9.61575 1.75V9.625H11.3771V2.81706C11.3771 2.23256 11.8514 1.75831 12.4359 1.75831H25.1431C25.728 1.75831 26.2018 2.23256 26.2018 2.81706L26.2294 25.1921C26.2294 25.7766 25.7555 26.2509 25.1706 26.2509H12.4363C11.8518 26.2509 11.3776 25.7766 11.3776 25.1921V18.3461L9.61622 18.3483V26.25C9.61622 27.2164 10.3993 28 11.3662 28H26.2408C27.2077 28 27.9912 27.2164 27.9912 26.25V1.75C27.9908 0.783562 27.2072 0 26.2408 0Z" fill="white"/>
</g>
<defs>
<clipPath id="clip0_90_251">
<rect width="28" height="28" fill="white"/>
</clipPath>
</defs>
</svg>
