<svg width="24" height="21" viewBox="0 0 24 21" fill="none" xmlns="http://www.w3.org/2000/svg">
<path d="M16.3913 0.666748C17.0412 0.66677 17.6782 0.847738 18.2311 1.18938C18.7839 1.53102 19.2307 2.01984 19.5215 2.60108L21.135 5.82692C21.4196 5.71025 21.7031 5.59241 21.9785 5.45591C22.2554 5.3176 22.5759 5.29497 22.8695 5.39299C23.1632 5.49101 23.4058 5.70165 23.5441 5.97858C23.6824 6.25551 23.7051 6.57604 23.6071 6.86966C23.509 7.16328 23.2984 7.40594 23.0215 7.54425C22.4451 7.83125 22.1815 7.91992 22.1815 7.91992L23.2968 10.1517C23.5406 10.6382 23.6666 11.1737 23.6666 11.7174V14.6667C23.6674 15.1593 23.5638 15.6464 23.3627 16.096C23.1616 16.5457 22.8676 16.9476 22.5 17.2754V18.7501C22.5 19.2142 22.3156 19.6593 21.9874 19.9875C21.6592 20.3157 21.2141 20.5001 20.75 20.5001C20.2858 20.5001 19.8407 20.3157 19.5125 19.9875C19.1843 19.6593 19 19.2142 19 18.7501V18.1667H4.99996V18.7501C4.99996 19.2142 4.81559 19.6593 4.4874 19.9875C4.15921 20.3157 3.71409 20.5001 3.24996 20.5001C2.78583 20.5001 2.34071 20.3157 2.01253 19.9875C1.68434 19.6593 1.49996 19.2142 1.49996 18.7501V17.2754C0.78363 16.6337 0.333297 15.7027 0.333297 14.6667V11.7174C0.333515 11.1743 0.460132 10.6387 0.70313 10.1529L1.81846 7.91992C1.53588 7.80273 1.25656 7.67785 0.980797 7.54541C0.84328 7.47719 0.720581 7.38249 0.61973 7.26676C0.518879 7.15102 0.441861 7.01652 0.393089 6.87097C0.344317 6.72541 0.324751 6.57166 0.335511 6.41852C0.346272 6.26539 0.387148 6.11589 0.455797 5.97858C0.597162 5.70309 0.84119 5.49424 1.1352 5.39711C1.42922 5.29997 1.74964 5.32235 2.0273 5.45941C2.30146 5.59241 2.58263 5.71258 2.86496 5.82692L4.47846 2.60108C4.76918 2.01984 5.21599 1.53102 5.76884 1.18938C6.32169 0.847738 6.95874 0.66677 7.60863 0.666748H16.3913ZM19.973 8.72142C17.9896 9.34792 15.1675 10.0001 12 10.0001C8.83246 10.0001 6.0103 9.34675 4.02696 8.72142L2.7903 11.1947C2.70899 11.357 2.66664 11.5359 2.66663 11.7174V14.6667C2.66663 14.9762 2.78955 15.2729 3.00834 15.4917C3.22713 15.7105 3.52388 15.8334 3.8333 15.8334H20.1666C20.476 15.8334 20.7728 15.7105 20.9916 15.4917C21.2104 15.2729 21.3333 14.9762 21.3333 14.6667V11.7174C21.3331 11.5363 21.2908 11.3578 21.2096 11.1959L19.973 8.72142ZM6.74996 11.1667C7.21409 11.1667 7.65921 11.3511 7.9874 11.6793C8.31559 12.0075 8.49996 12.4526 8.49996 12.9167C8.49996 13.3809 8.31559 13.826 7.9874 14.1542C7.65921 14.4824 7.21409 14.6667 6.74996 14.6667C6.28583 14.6667 5.84071 14.4824 5.51253 14.1542C5.18434 13.826 4.99996 13.3809 4.99996 12.9167C4.99996 12.4526 5.18434 12.0075 5.51253 11.6793C5.84071 11.3511 6.28583 11.1667 6.74996 11.1667ZM17.25 11.1667C17.7141 11.1667 18.1592 11.3511 18.4874 11.6793C18.8156 12.0075 19 12.4526 19 12.9167C19 13.3809 18.8156 13.826 18.4874 14.1542C18.1592 14.4824 17.7141 14.6667 17.25 14.6667C16.7858 14.6667 16.3407 14.4824 16.0125 14.1542C15.6843 13.826 15.5 13.3809 15.5 12.9167C15.5 12.4526 15.6843 12.0075 16.0125 11.6793C16.3407 11.3511 16.7858 11.1667 17.25 11.1667ZM16.3913 3.00008H7.60863C7.39202 3.0002 7.17973 3.06061 6.99552 3.17456C6.8113 3.28851 6.66245 3.45149 6.56563 3.64525L5.08396 6.60508C6.88996 7.14758 9.32363 7.66675 12 7.66675C14.6763 7.66675 17.11 7.14758 18.9148 6.60508L17.4343 3.64525C17.3375 3.45149 17.1886 3.28851 17.0044 3.17456C16.8202 3.06061 16.6079 3.0002 16.3913 3.00008Z" fill="white"/>
</svg>
