<svg width="575" height="770" viewBox="0 0 575 770" fill="none" xmlns="http://www.w3.org/2000/svg">
<path d="M174.97 769.945C78.3367 769.945 3.05176e-05 760.646 3.05176e-05 749.176C3.05176e-05 737.706 78.3367 728.408 174.97 728.408C271.603 728.408 349.94 737.706 349.94 749.176C349.94 760.646 271.603 769.945 174.97 769.945Z" fill="white"/>
<path opacity="0.1" d="M174.97 769.945C78.3367 769.945 3.05176e-05 760.646 3.05176e-05 749.176C3.05176e-05 737.706 78.3367 728.408 174.97 728.408C271.603 728.408 349.94 737.706 349.94 749.176C349.94 760.646 271.603 769.945 174.97 769.945Z" fill="#292A2E"/>
<path d="M482.99 272.287H374.778V91.1022L482.99 91.1022V272.287Z" fill="#F4F4F4"/>
<path d="M482.989 91.1001H486.5V272.285H482.989V91.1001Z" fill="#F4F4F4"/>
<path opacity="0.05" d="M482.989 91.1001H486.5V272.285H482.989V91.1001Z" fill="#292A2E"/>
<path opacity="0.05" d="M463.277 239.28H394.49V124.105L463.277 124.105V239.28Z" fill="#292A2E"/>
<path opacity="0.03" d="M463.277 239.28H459.692V124.105H463.277V239.28Z" fill="#292A2E"/>
<path d="M571.49 431.73H482.99V316.842H571.49V431.73Z" fill="#F4F4F4"/>
<path opacity="0.05" d="M555.369 410.802H499.112V337.771H555.369V410.802Z" fill="#292A2E"/>
<path d="M571.489 316.843H575V431.731H571.489V316.843Z" fill="#F4F4F4"/>
<path opacity="0.05" d="M571.489 316.843H575V431.731H571.489V316.843Z" fill="#292A2E"/>
<path opacity="0.03" d="M555.369 410.802H551.784V337.771H555.369V410.802Z" fill="#292A2E"/>
<path d="M74.8769 40.1997H300.699V330.687H74.8769V40.1997Z" fill="#F4F4F4"/>
<path d="M300.699 40.1997H303.287V330.687H300.699V40.1997Z" fill="#F4F4F4"/>
<path opacity="0.05" d="M300.699 40.1997H303.287V330.687H300.699V40.1997Z" fill="#292A2E"/>
<path opacity="0.05" d="M245.993 240.369V164.367H197.595V208.523H122.628V286.704H90.7659V330.686H122.628H128.766H289.836V240.369H245.993Z" fill="#292A2E"/>
<path opacity="0.34" d="M203.808 172.621H239.052V180.872H203.808V172.621Z" fill="#FFFFFA"/>
<path opacity="0.34" d="M203.808 189.719H239.052V197.971H203.808V189.719Z" fill="#FFFFFA"/>
<path opacity="0.34" d="M203.808 206.82H239.052V215.072H203.808V206.82Z" fill="#FFFFFA"/>
<path opacity="0.34" d="M277.091 248.378H283.587V256.63H277.091V248.378Z" fill="#FFFFFA"/>
<path opacity="0.34" d="M277.091 265.479H283.587V273.731H277.091V265.479Z" fill="#FFFFFA"/>
<path opacity="0.34" d="M277.091 282.579H283.587V290.831H277.091V282.579Z" fill="#FFFFFA"/>
<path opacity="0.34" d="M265.073 248.379H271.569V256.63H265.073V248.379Z" fill="#FFFFFA"/>
<path opacity="0.34" d="M265.073 265.479H271.569V273.731H265.073V265.479Z" fill="#FFFFFA"/>
<path opacity="0.34" d="M265.073 282.579H271.569V290.831H265.073V282.579Z" fill="#FFFFFA"/>
<path opacity="0.34" d="M253.381 248.379H259.877V256.63H253.381V248.379Z" fill="#FFFFFA"/>
<path opacity="0.34" d="M253.381 265.479H259.877V273.731H253.381V265.479Z" fill="#FFFFFA"/>
<path opacity="0.34" d="M253.381 282.579H259.877V290.831H253.381V282.579Z" fill="#FFFFFA"/>
<path d="M300.699 183.814H255.26V40.1992H251.502V183.814H128.766V40.1992H125.008V183.814H74.8769V188.647H125.008V330.687H128.766V188.647H251.502V330.687H255.26V188.647H300.699V183.814Z" fill="white"/>
<path d="M65.8814 330.336H309.695V339.996H65.8814V330.336Z" fill="#F4F4F4"/>
<path opacity="0.1" d="M65.8814 330.336H309.695V339.996H65.8814V330.336Z" fill="#292A2E"/>
<path opacity="0.1" d="M309.695 330.336H313.215V339.996H309.695V330.336Z" fill="#292A2E"/>
<path opacity="0.1" d="M309.695 330.336H313.215V339.996H309.695V330.336Z" fill="#292A2E"/>
<path d="M113.602 380.1C148.174 380.1 176.2 392.232 176.2 407.199V439.46H51.0031V407.199C51.0031 392.232 79.0295 380.1 113.602 380.1Z" fill="#4EA926"/>
<path opacity="0.49" d="M113.602 380.1C148.174 380.1 176.2 392.232 176.2 407.199V439.46H51.0031V407.199C51.0031 392.232 79.0295 380.1 113.602 380.1Z" fill="white"/>
<path opacity="0.49" d="M68.0552 407.201V439.457H176.201V407.201C176.201 393.483 152.663 382.148 122.128 380.357C91.59 382.148 68.0552 393.483 68.0552 407.201Z" fill="white"/>
<path d="M51.0026 752.931H48.9015L51.0026 436.598L53.0855 439.301L51.6004 660.268L125.763 661.889L127.26 439.277L129.342 439.301L127.846 661.934L172.615 662.913L174.118 439.277L176.201 436.621L174.1 752.931L172.035 752.908L172.597 665.594L127.828 664.615L127.26 752.931L125.177 752.908L125.745 664.569L51.5823 662.947L51.0026 752.931Z" fill="#292A2E"/>
<path d="M239.822 705.571C239.822 705.571 243.545 730.394 261.613 731.777C279.682 733.161 275.763 751.677 275.763 751.677H206.716V707.301L239.822 705.571Z" fill="#4EA926"/>
<path d="M200.428 630.907C200.428 630.907 195.25 655.295 210.988 666.796C226.725 678.297 216.856 692.687 216.856 692.687L154.901 653.478L170.128 613.66L200.428 630.907Z" fill="#4EA926"/>
<path d="M206.983 647.024L253.667 420.443C257.208 395.411 251.877 384.561 243.662 374.021C229.23 355.504 169.427 316.091 169.427 316.091L97.6824 315.839C78.6579 315.839 59.9576 339.969 59.9576 364.44C59.9576 388.91 79.2967 409.663 98.3204 409.663L186.668 421.006L162.719 628.472L206.983 647.024Z" fill="#262626"/>
<path d="M162.72 628.471L172.148 546.794L219.912 584.274L206.983 647.025L162.72 628.471Z" fill="#2F3033"/>
<path d="M151.893 361.942C151.893 361.942 182.053 370.588 211.922 409.011C230.032 432.307 228.547 474.464 225.83 555.547L196.164 499.181L163.625 423.69L151.893 361.942Z" fill="#2F3033"/>
<path d="M47.4681 315.816L96.1916 315.52L96.2096 316.346H110.963C110.963 316.346 147.921 360.088 177.673 387.653C199.315 407.703 212.517 426.818 213.659 447.652C216.444 498.437 247.854 715.029 247.854 715.029L200.583 724.237L159.099 465.392C159.099 465.392 94.2357 426.923 79.232 413.54C65.1039 400.935 55.1244 396.062 50.4488 382.305C42.3745 358.547 47.4681 315.816 47.4681 315.816Z" fill="#262626"/>
<path d="M102.13 331.602L181.172 332.949L136.833 367.013L99.9398 342.506C99.0508 341.892 98.3478 340.912 97.9433 339.723C97.5388 338.534 97.4561 337.205 97.7085 335.948C97.961 334.692 98.5339 333.58 99.3356 332.792C100.137 332.004 101.121 331.585 102.13 331.602Z" fill="#292A2E"/>
<path opacity="0.2" d="M102.13 331.602L181.172 332.949L136.833 367.013L99.9398 342.506C99.0508 341.892 98.3478 340.912 97.9433 339.723C97.5388 338.534 97.4561 337.205 97.7085 335.948C97.961 334.692 98.5339 333.58 99.3356 332.792C100.137 332.004 101.121 331.585 102.13 331.602Z" fill="white"/>
<path d="M180.72 149.194L203.077 242.377L247.857 317.796L221.699 356.423L168.424 279.935C165.969 277.44 164.049 274.182 162.845 270.468L162.015 267.884L131.243 172.108L180.72 149.194Z" fill="#4EA926"/>
<path d="M146.279 50.2827C146.279 50.2827 155.288 41.5299 157.519 21.3984C159.248 5.81031 148.07 15.9091 148.07 15.9091C148.07 15.9091 149.229 4.66886 142.862 5.7844C136.495 6.89994 132.933 18.7073 132.933 18.7073" fill="#2F3033"/>
<path d="M109.958 7.09961C109.958 7.09961 78.3703 11.4555 89.7891 66.5161L92.5838 66.7573L98.2578 67.2467" fill="#2F3033"/>
<path d="M140.988 124.019C140.849 123.996 139.308 156.887 109.605 154.022C89.0382 152.04 81.7054 123.972 81.2347 123.972C83.4517 123.366 86.1922 122.446 87.2809 122.131C89.6544 121.422 91.804 119.801 93.4437 117.482C95.0834 115.164 96.1354 112.258 96.4599 109.151C97.0611 104.489 96.0433 80.6351 96.355 75.9175L127.92 84.9811C127.479 94.9451 124.392 118.043 135.211 122.131C137.013 122.806 138.952 123.431 140.988 124.019Z" fill="#E98862"/>
<path opacity="0.52" d="M128.363 112.692C127.868 110.642 127.55 108.528 127.413 106.389C127.066 101.507 127.136 96.5915 127.621 91.7295C121.204 90.6172 115.159 87.2119 110.172 81.9004C109.585 84.6852 106.361 96.8535 107.256 99.4954C108.942 104.497 116.87 112.692 128.363 112.692Z" fill="#2F3033"/>
<path d="M121.847 106.182C109.393 104.744 94.4863 94.6224 94.2711 72.8752L94.0773 53.2528C93.8621 31.5064 102.568 13.7319 118.485 13.4711C134.402 13.2112 146.475 30.6454 146.69 52.3927L146.775 61.0794C146.764 64.0628 146.596 67.0418 146.27 69.9957C145.453 77.8107 144.187 89.6922 140.064 97.7297C136.171 105.318 129.804 107.099 121.847 106.182Z" fill="#E98862"/>
<path opacity="0.52" d="M127.625 86.3033C130.195 86.4531 132.757 85.8238 135.104 84.4661C135.199 84.4104 135.274 84.3086 135.312 84.1826C135.351 84.0567 135.349 83.9165 135.308 83.7921C135.267 83.6677 135.189 83.569 135.092 83.5172C134.995 83.4654 134.886 83.4645 134.788 83.5149C129.733 86.2881 125.143 85.8826 121.514 82.3413C121.441 82.2668 121.365 82.1974 121.286 82.1332C121.195 82.078 121.091 82.0689 120.995 82.1077C120.899 82.1466 120.817 82.2306 120.767 82.343C120.717 82.4554 120.701 82.5881 120.723 82.7147C120.745 82.8412 120.804 82.9525 120.887 83.0263C120.916 83.0495 120.963 83.0969 121.025 83.1612C122.933 85.0304 125.231 86.1245 127.625 86.3033Z" fill="#2F3033"/>
<path opacity="0.52" d="M127.508 91.203C127.972 91.2398 128.438 91.2255 128.9 91.1601C128.953 91.153 129.004 91.1326 129.05 91.1002C129.096 91.0678 129.137 91.0239 129.17 90.9712C129.204 90.9184 129.228 90.8578 129.243 90.7928C129.258 90.7277 129.263 90.6595 129.257 90.5921C129.252 90.5247 129.236 90.4593 129.211 90.3997C129.186 90.3401 129.151 90.2875 129.11 90.2449C129.069 90.2023 129.022 90.1705 128.972 90.1513C128.921 90.1321 128.868 90.1259 128.816 90.133C126.034 90.5126 124.706 88.8737 124.65 88.8031C124.575 88.7061 124.473 88.6515 124.366 88.6514C124.259 88.6512 124.157 88.7055 124.082 88.8022C124.006 88.899 123.964 89.0303 123.964 89.1673C123.964 89.3044 124.006 89.4358 124.081 89.5328C125.039 90.5821 126.25 91.1722 127.508 91.203Z" fill="#2F3033"/>
<path d="M141.433 65.2603C140.35 65.2603 139.472 64.1311 139.472 62.7381C139.472 61.3451 140.35 60.2158 141.433 60.2158C142.516 60.2158 143.394 61.3451 143.394 62.7381C143.394 64.1311 142.516 65.2603 141.433 65.2603Z" fill="#2F3033"/>
<path d="M122.277 63.7154C121.194 63.7154 120.316 62.5861 120.316 61.1931C120.316 59.8001 121.194 58.6709 122.277 58.6709C123.36 58.6709 124.238 59.8001 124.238 61.1931C124.238 62.5861 123.36 63.7154 122.277 63.7154Z" fill="#2F3033"/>
<path d="M95.3252 79.4888C90.4879 79.5682 86.5011 72.975 86.4379 66.7525C86.3747 60.5299 90.2643 57.0342 95.1017 56.9556L97.6352 61.0837L99.4828 79.4209L95.3252 79.4888Z" fill="#E98862"/>
<path d="M100.138 69.4848C100.138 69.4848 101.772 38.7132 109.026 36.8126C113.857 35.547 125.572 44.3624 136.424 41.6999C141.171 40.5388 145.678 42.0464 146.136 44.9313C146.318 46.0736 149.275 29.6585 141.841 17.2045C135.922 7.29053 116.552 4.48605 107.74 7.7371C83.3386 16.7418 94.1062 58.3044 94.1062 58.3044L95.1942 68.9132L100.138 69.4848Z" fill="#2F3033"/>
<g opacity="0.52">
<path d="M130.55 79.0415C130.56 79.0424 130.57 79.0424 130.58 79.0415C132.139 79.0218 134.752 78.7637 134.742 77.2641C134.731 76.0209 131.981 62.6388 131.667 61.1169C131.64 60.9859 131.574 60.8741 131.483 60.806C131.392 60.7379 131.284 60.7192 131.182 60.7539C131.08 60.7886 130.993 60.8739 130.94 60.991C130.887 61.1082 130.873 61.2476 130.9 61.3786C132.122 67.3055 133.941 76.4299 133.948 77.2766C133.797 77.6339 132.187 78.0019 130.573 78.0233C130.471 78.0261 130.374 78.0791 130.302 78.1713C130.23 78.2635 130.188 78.3879 130.185 78.5189C130.182 78.6498 130.218 78.7772 130.286 78.8748C130.354 78.9724 130.448 79.0327 130.55 79.0433V79.0415Z" fill="#2F3033"/>
</g>
<path d="M135.867 49.063C137.506 48.4829 139.236 48.4829 140.874 49.063C141.679 49.3413 142.446 49.7737 143.151 50.3455C143.848 50.9054 144.487 51.5765 145.053 52.3426C145.158 52.4791 145.217 52.6621 145.219 52.8535C145.222 53.045 145.166 53.2301 145.065 53.3705C144.964 53.5108 144.824 53.5956 144.676 53.6071C144.527 53.6186 144.381 53.556 144.267 53.4322L144.232 53.3929C143.708 52.7684 143.125 52.2315 142.496 51.7951C141.88 51.3606 141.215 51.0486 140.526 50.8698C139.17 50.5039 137.762 50.6053 136.446 51.1636L136.391 51.1887C136.176 51.278 135.941 51.2557 135.739 51.1265C135.536 50.9974 135.38 50.7715 135.305 50.497C135.229 50.2224 135.24 49.9209 135.335 49.6564C135.429 49.3919 135.601 49.1855 135.812 49.0808L135.867 49.063Z" fill="#2F3033"/>
<path d="M124.267 50.3272C123.021 49.5481 121.636 49.2064 120.253 49.3367C119.552 49.3953 118.862 49.5905 118.206 49.9155C117.539 50.2411 116.906 50.6732 116.322 51.2016L116.285 51.2338C116.159 51.3376 116.008 51.3753 115.861 51.3388C115.715 51.3023 115.585 51.1945 115.499 51.0379C115.413 50.8814 115.377 50.6881 115.399 50.4984C115.421 50.3087 115.5 50.1374 115.617 50.02C116.258 49.3578 116.961 48.8023 117.709 48.3668C118.467 47.921 119.273 47.6241 120.099 47.4861C121.783 47.191 123.497 47.4863 125.061 48.3409C125.166 48.3995 125.261 48.4842 125.34 48.59C125.42 48.6958 125.482 48.8206 125.524 48.9575C125.566 49.0943 125.586 49.2405 125.584 49.3875C125.582 49.5346 125.558 49.6797 125.512 49.8146C125.42 50.087 125.248 50.3012 125.033 50.4101C124.927 50.464 124.813 50.4904 124.699 50.4878C124.584 50.4853 124.472 50.4538 124.367 50.3951L124.318 50.3656L124.267 50.3272Z" fill="#2F3033"/>
<path d="M125.062 17.3444C123.961 10.5652 125.971 4.28949 129.551 3.3272C133.132 2.3649 136.927 7.08042 138.028 13.8596C139.129 20.6387 137.119 26.9144 133.539 27.8767C129.958 28.839 126.163 24.1235 125.062 17.3444Z" fill="#2F3033"/>
<path d="M177.898 196.312C176.962 210.452 170.33 298.676 169.427 316.094H47.5217C46.8212 300.384 43.6766 231.691 41.0201 200.967C38.4844 171.652 34.9309 158.312 37.8512 149.203C43.0017 133.135 59.3961 125.961 70.4976 124.027C77.277 122.846 87.4732 122 87.4732 122C87.4732 122 88.3362 144.466 108.922 145.716C136.944 147.413 135.073 122 135.211 122C139.752 122 164.462 126.247 170.641 131.428C179.368 138.744 181.948 148.716 182.05 157.877C182.166 168.428 178.957 180.272 177.898 196.312Z" fill="#4EA926"/>
<path d="M171.716 281.328C171.803 281.328 171.887 281.286 171.951 281.211C172.016 281.136 172.056 281.032 172.063 280.92L176.682 212.97C176.69 212.852 176.661 212.735 176.602 212.644C176.543 212.553 176.458 212.496 176.367 212.486C176.321 212.48 176.275 212.486 176.231 212.503C176.188 212.52 176.147 212.549 176.112 212.586C176.077 212.624 176.048 212.671 176.027 212.723C176.006 212.776 175.994 212.833 175.99 212.892L171.372 280.843C171.364 280.96 171.393 281.078 171.452 281.168C171.511 281.259 171.595 281.315 171.687 281.326C171.697 281.327 171.706 281.328 171.716 281.328Z" fill="#2F3033"/>
<path d="M162.877 320.796L146.138 303.327L148.955 304.351C149.869 304.659 150.84 304.508 151.671 303.929C152.503 303.351 153.132 302.389 153.433 301.236C153.572 300.634 153.615 300.002 153.558 299.379C153.501 298.755 153.345 298.153 153.102 297.61C152.858 297.066 152.53 296.592 152.139 296.216C151.748 295.84 151.302 295.571 150.827 295.424L115.663 284.423L112.637 298.831C111.697 303.306 111.817 308.04 112.982 312.426C114.147 316.812 116.304 320.651 119.176 323.45L132.206 336.099C132.873 336.772 133.7 337.129 134.547 337.108C135.395 337.087 136.211 336.69 136.858 335.985C137.431 335.331 137.828 334.458 137.989 333.494C138.149 332.53 138.066 331.525 137.751 330.626C137.808 330.605 137.858 330.564 137.898 330.508C137.933 330.454 137.958 330.389 137.969 330.32C137.98 330.251 137.977 330.18 137.961 330.112L140.362 332.451C141.103 333.204 142.04 333.567 142.982 333.467C143.923 333.366 144.8 332.809 145.435 331.909C145.981 331.078 146.281 330.027 146.283 328.94C146.286 327.853 145.99 326.8 145.448 325.966C145.486 325.958 145.523 325.942 145.556 325.918L146.542 326.879C147.209 327.552 148.036 327.909 148.884 327.888C149.731 327.867 150.547 327.47 151.194 326.765C151.89 325.972 152.32 324.863 152.394 323.671C152.469 322.479 152.181 321.296 151.592 320.371C151.606 320.345 151.618 320.317 151.627 320.288L158.598 327.562C158.944 327.923 159.341 328.193 159.768 328.356C160.194 328.519 160.642 328.572 161.084 328.513C161.527 328.453 161.956 328.282 162.347 328.01C162.738 327.737 163.084 327.368 163.364 326.923C163.645 326.479 163.854 325.968 163.981 325.419C164.108 324.87 164.149 324.295 164.103 323.726C164.057 323.156 163.924 322.604 163.712 322.101C163.5 321.598 163.213 321.153 162.868 320.792L162.877 320.796Z" fill="#E98862"/>
<path opacity="0.2" d="M151.211 320.55C151.174 320.533 151.139 320.508 151.109 320.476L144.402 313.308C144.368 313.272 144.34 313.227 144.319 313.177C144.299 313.126 144.286 313.071 144.282 313.014C144.278 312.957 144.283 312.9 144.296 312.846C144.309 312.791 144.33 312.741 144.359 312.697C144.387 312.653 144.422 312.617 144.461 312.59C144.5 312.564 144.543 312.548 144.587 312.542C144.632 312.537 144.676 312.543 144.718 312.56C144.761 312.577 144.8 312.605 144.834 312.641L151.54 319.808C151.601 319.873 151.643 319.964 151.657 320.064C151.671 320.165 151.657 320.268 151.618 320.357C151.578 320.445 151.516 320.513 151.441 320.548C151.367 320.584 151.285 320.584 151.211 320.55Z" fill="#2F3033"/>
<path opacity="0.2" d="M145.3 325.964C145.264 325.947 145.23 325.923 145.2 325.892L139.895 320.311C139.826 320.238 139.782 320.133 139.773 320.019C139.764 319.904 139.79 319.789 139.847 319.7C139.904 319.611 139.986 319.555 140.075 319.543C140.164 319.531 140.253 319.566 140.322 319.639L145.627 325.219C145.689 325.284 145.731 325.375 145.746 325.475C145.761 325.576 145.747 325.68 145.708 325.77C145.669 325.859 145.606 325.927 145.532 325.963C145.457 325.998 145.375 325.999 145.3 325.964Z" fill="#2F3033"/>
<path opacity="0.2" d="M137.534 330.642C137.496 330.623 137.46 330.596 137.428 330.562L134.971 327.851C134.937 327.814 134.91 327.769 134.89 327.718C134.87 327.667 134.858 327.612 134.854 327.555C134.851 327.499 134.856 327.442 134.87 327.387C134.884 327.333 134.906 327.283 134.935 327.24C134.963 327.197 134.998 327.161 135.038 327.135C135.077 327.11 135.121 327.094 135.165 327.09C135.209 327.086 135.253 327.092 135.295 327.11C135.337 327.128 135.376 327.156 135.41 327.193L137.868 329.904C137.927 329.97 137.967 330.061 137.98 330.161C137.993 330.26 137.979 330.363 137.939 330.451C137.9 330.538 137.837 330.605 137.764 330.64C137.69 330.675 137.609 330.675 137.534 330.642Z" fill="#2F3033"/>
<path d="M14.9356 278.01L15.0641 277.277L37.3151 150.681L81.3353 163.481L63.9681 262.298L133.538 284.288L124.976 334.785L32.266 312.038C32.0577 311.986 31.7487 311.905 31.5376 311.844C28.7205 311.024 26.0564 309.499 23.6975 307.356C21.3385 305.212 19.3309 302.492 17.7892 299.35C16.2476 296.208 15.2021 292.707 14.7125 289.045C14.2229 285.384 14.2987 281.634 14.9356 278.01Z" fill="#4EA926"/>
<path d="M133.878 284.383C133.897 284.27 133.88 284.152 133.833 284.054C133.785 283.956 133.709 283.886 133.622 283.858L64.3613 261.976L75.6226 197.995C75.6353 197.936 75.6386 197.875 75.6324 197.815C75.6262 197.755 75.6106 197.698 75.5865 197.646C75.5624 197.594 75.5304 197.549 75.4923 197.513C75.4543 197.477 75.411 197.452 75.3651 197.439C75.3192 197.425 75.2717 197.424 75.2255 197.435C75.1792 197.446 75.1351 197.469 75.0959 197.503C75.0568 197.536 75.0233 197.579 74.9976 197.63C74.9719 197.681 74.9544 197.738 74.9463 197.797L63.6094 262.207C63.5885 262.321 63.6036 262.442 63.6514 262.542C63.6993 262.643 63.776 262.715 63.8649 262.742L133.13 284.625C133.13 284.625 132.666 287.229 132.535 288.108C132.525 288.222 132.55 288.337 132.606 288.428C132.661 288.518 132.742 288.576 132.831 288.589C132.92 288.602 133.01 288.57 133.08 288.498C133.15 288.427 133.195 288.322 133.206 288.208C133.365 287.244 133.878 284.383 133.878 284.383Z" fill="#2F3033"/>
<path d="M131.164 354.896L157.912 249.127C158.382 247.269 159.298 245.649 160.527 244.5C161.756 243.352 163.237 242.733 164.756 242.733H273.733C274.869 242.733 275.989 243.079 277.001 243.743C278.013 244.406 278.888 245.368 279.556 246.551C280.224 247.733 280.664 249.102 280.841 250.545C281.019 251.989 280.928 253.466 280.577 254.855L253.827 360.624C253.357 362.483 252.442 364.102 251.212 365.251C249.983 366.4 248.503 367.018 246.983 367.018H138.007C136.872 367.018 135.752 366.672 134.74 366.009C133.728 365.345 132.852 364.383 132.184 363.201C131.517 362.018 131.076 360.649 130.899 359.206C130.722 357.763 130.812 356.286 131.164 354.896Z" fill="#292A2E"/>
<path opacity="0.2" d="M131.164 354.896L157.912 249.127C158.382 247.269 159.298 245.649 160.527 244.5C161.756 243.352 163.237 242.733 164.756 242.733H273.733C274.869 242.733 275.989 243.079 277.001 243.743C278.013 244.406 278.888 245.368 279.556 246.551C280.224 247.733 280.664 249.102 280.841 250.545C281.019 251.989 280.928 253.466 280.577 254.855L253.827 360.624C253.357 362.483 252.442 364.102 251.212 365.251C249.983 366.4 248.503 367.018 246.983 367.018H138.007C136.872 367.018 135.752 366.672 134.74 366.009C133.728 365.345 132.852 364.383 132.184 363.201C131.517 362.018 131.076 360.649 130.899 359.206C130.722 357.763 130.812 356.286 131.164 354.896Z" fill="white"/>
<path d="M209.009 319.579C202.697 319.579 197.58 312.997 197.58 304.877C197.58 296.757 202.697 290.175 209.009 290.175C215.321 290.175 220.438 296.757 220.438 304.877C220.438 312.997 215.321 319.579 209.009 319.579Z" fill="white"/>
<path d="M316.603 11.1777H532.894C542.914 11.1777 551.037 21.6269 551.037 34.5165V372.278C551.037 385.167 542.914 395.617 532.894 395.617H316.603C306.583 395.617 298.46 385.167 298.46 372.278V34.5165C298.46 21.6269 306.583 11.1777 316.603 11.1777Z" fill="#292A2E"/>
<path d="M308.609 0.894531H524.9C534.92 0.894531 543.043 11.3437 543.043 24.2333V361.995C543.043 374.884 534.92 385.333 524.9 385.333H308.609C298.588 385.333 290.465 374.884 290.465 361.995V24.2333C290.465 11.3437 298.588 0.894531 308.609 0.894531Z" fill="white"/>
<path d="M308.608 386.225H524.899C529.894 386.218 534.682 383.663 538.214 379.12C541.745 374.577 543.732 368.417 543.737 361.992V24.232C543.732 17.8074 541.745 11.6481 538.214 7.10521C534.682 2.56237 529.894 0.00709215 524.899 0L308.608 0C303.614 0.00732851 298.826 2.56271 295.295 7.10553C291.763 11.6483 289.777 17.8076 289.771 24.232V361.992C289.777 368.417 291.763 374.576 295.294 379.119C298.826 383.662 303.614 386.218 308.608 386.225ZM524.899 1.78629C529.526 1.79291 533.961 4.15984 537.232 8.36779C540.503 12.5757 542.343 18.281 542.349 24.232V361.992C542.343 367.943 540.503 373.649 537.232 377.857C533.961 382.065 529.526 384.431 524.899 384.438H308.608C303.982 384.431 299.547 382.064 296.276 377.857C293.005 373.649 291.165 367.943 291.16 361.992V24.232C291.165 18.2811 293.005 12.5758 296.276 8.36784C299.547 4.15987 303.982 1.79291 308.608 1.78629H524.899Z" fill="#292A2E"/>
<path d="M486.906 468.682C462.028 468.682 441.861 442.74 441.861 410.738C441.861 378.736 462.028 352.793 486.906 352.793C511.784 352.793 531.952 378.736 531.952 410.738C531.952 442.74 511.784 468.682 486.906 468.682Z" fill="#292A2E"/>
<path d="M496.252 407.673C496.845 407.673 497.414 407.37 497.833 406.831C498.252 406.291 498.488 405.56 498.488 404.797V390.872C498.488 383.172 493.29 376.907 486.901 376.907C480.512 376.907 475.313 383.172 475.313 390.872V403.841C475.308 404.223 475.362 404.603 475.472 404.958C475.582 405.313 475.746 405.636 475.954 405.908C476.162 406.181 476.41 406.397 476.684 406.545C476.958 406.693 477.252 406.769 477.549 406.769C477.846 406.769 478.14 406.693 478.414 406.545C478.688 406.397 478.936 406.181 479.145 405.908C479.353 405.636 479.517 405.313 479.627 404.958C479.737 404.603 479.791 404.223 479.785 403.841V390.872C479.785 386.344 482.979 382.66 486.901 382.66C490.822 382.66 494.016 386.344 494.016 390.872V404.799C494.017 405.561 494.252 406.292 494.672 406.831C495.091 407.37 495.659 407.673 496.252 407.673Z" fill="white"/>
<path d="M472.635 402.391H501.166C502.83 402.391 504.179 404.126 504.179 406.266V440.836C504.179 442.977 502.83 444.712 501.166 444.712H472.635C470.971 444.712 469.622 442.977 469.622 440.836V406.266C469.622 404.126 470.971 402.391 472.635 402.391Z" fill="white"/>
<path d="M489.741 420.128C489.741 420.814 489.592 421.486 489.309 422.067C489.027 422.649 488.623 423.116 488.144 423.417V429.031C488.144 429.454 488.014 429.86 487.781 430.159C487.548 430.458 487.233 430.626 486.904 430.626C486.575 430.626 486.26 430.458 486.027 430.159C485.795 429.86 485.664 429.454 485.664 429.031V423.417C485.208 423.132 484.819 422.695 484.538 422.152C484.258 421.608 484.095 420.978 484.068 420.327C484.04 419.675 484.149 419.026 484.383 418.447C484.616 417.868 484.966 417.379 485.396 417.033C485.826 416.687 486.32 416.495 486.827 416.477C487.334 416.459 487.835 416.616 488.279 416.932C488.723 417.248 489.093 417.711 489.351 418.273C489.608 418.835 489.744 419.476 489.745 420.128H489.741Z" fill="#292A2E"/>
<path d="M327.496 192.716H506.012C510.273 192.716 513.728 197.16 513.728 202.641V234.834C513.728 240.316 510.273 244.759 506.012 244.759H327.496C323.235 244.759 319.78 240.316 319.78 234.834V202.641C319.78 197.16 323.235 192.716 327.496 192.716Z" fill="white"/>
<path d="M327.497 245.654H506.012C508.242 245.65 510.379 244.509 511.956 242.481C513.533 240.453 514.42 237.703 514.422 234.835V202.643C514.42 199.775 513.533 197.025 511.956 194.997C510.379 192.968 508.242 191.827 506.012 191.824H327.497C325.267 191.827 323.129 192.968 321.552 194.996C319.975 197.025 319.088 199.775 319.086 202.643V234.835C319.088 237.703 319.975 240.453 321.552 242.482C323.129 244.51 325.267 245.651 327.497 245.654ZM506.012 193.61C507.874 193.613 509.659 194.565 510.975 196.259C512.291 197.952 513.032 200.248 513.034 202.643V234.835C513.032 237.23 512.291 239.526 510.975 241.219C509.658 242.912 507.874 243.865 506.012 243.867H327.497C325.635 243.865 323.85 242.912 322.534 241.219C321.217 239.526 320.477 237.23 320.475 234.835V202.643C320.477 200.248 321.217 197.952 322.534 196.259C323.85 194.565 325.635 193.613 327.497 193.61H506.012Z" fill="#292A2E"/>
<path d="M327.496 267.093H506.012C510.273 267.093 513.728 271.536 513.728 277.018V309.211C513.728 314.692 510.273 319.136 506.012 319.136H327.496C323.235 319.136 319.78 314.692 319.78 309.211V277.018C319.78 271.536 323.235 267.093 327.496 267.093Z" fill="white"/>
<path d="M327.497 320.029H506.012C508.242 320.025 510.38 318.884 511.957 316.855C513.534 314.826 514.42 312.076 514.422 309.207V277.018C514.42 274.15 513.533 271.4 511.956 269.372C510.379 267.344 508.242 266.203 506.012 266.199H327.497C325.267 266.203 323.129 267.343 321.552 269.372C319.975 271.4 319.088 274.15 319.086 277.018V309.207C319.088 312.076 319.975 314.827 321.552 316.856C323.128 318.884 325.267 320.025 327.497 320.029ZM506.012 267.986C507.874 267.988 509.658 268.941 510.975 270.634C512.291 272.327 513.032 274.623 513.034 277.018V309.207C513.032 311.602 512.291 313.898 510.975 315.591C509.658 317.284 507.874 318.237 506.012 318.24H327.497C325.635 318.237 323.85 317.285 322.534 315.591C321.217 313.898 320.477 311.602 320.475 309.207V277.018C320.477 274.623 321.217 272.327 322.534 270.634C323.85 268.94 325.635 267.988 327.497 267.986H506.012Z" fill="#292A2E"/>
<path d="M416.754 154.004C393.864 154.004 375.307 130.134 375.307 100.689C375.307 71.2432 393.864 47.373 416.754 47.373C439.645 47.373 458.201 71.2432 458.201 100.689C458.201 130.134 439.645 154.004 416.754 154.004Z" fill="white"/>
<path d="M416.754 154.898C425.089 154.898 433.237 151.719 440.167 145.762C447.097 139.806 452.498 131.34 455.688 121.434C458.877 111.529 459.712 100.629 458.086 90.114C456.46 79.5986 452.446 69.9395 446.553 62.3583C440.659 54.7771 433.15 49.6142 424.976 47.5226C416.801 45.4309 408.328 46.5044 400.628 50.6074C392.927 54.7103 386.346 61.6583 381.715 70.5729C377.085 79.4875 374.613 89.9682 374.613 100.69C374.626 115.062 379.069 128.841 386.97 139.003C394.87 149.166 405.582 154.882 416.754 154.898ZM416.754 48.2673C424.814 48.2673 432.694 51.3418 439.395 57.102C446.097 62.8623 451.32 71.0495 454.405 80.6285C457.489 90.2074 458.296 100.748 456.724 110.917C455.151 121.086 451.27 130.426 445.571 137.758C439.871 145.089 432.61 150.082 424.705 152.105C416.8 154.127 408.606 153.089 401.159 149.122C393.712 145.154 387.348 138.435 382.87 129.814C378.392 121.193 376.002 111.058 376.002 100.69C376.014 86.7911 380.311 73.4664 387.951 63.6386C395.591 53.8109 405.95 48.2829 416.754 48.2673Z" fill="#292A2E"/>
<path opacity="0.5" d="M376.228 100.691C376.216 113.031 379.62 124.974 385.831 134.379C389.656 128.643 394.4 124.039 399.738 120.883C405.076 117.727 410.882 116.093 416.757 116.095C422.632 116.096 428.437 117.732 433.774 120.891C439.112 124.049 443.855 128.655 447.678 134.393C451.895 127.991 454.849 120.374 456.287 112.189C457.726 104.004 457.607 95.493 455.941 87.3796C454.276 79.2663 451.112 71.79 446.719 65.5862C442.326 59.3823 436.834 54.6342 430.709 51.7452C424.585 48.8561 418.008 47.9116 411.539 48.9919C405.07 50.0722 398.899 53.1453 393.551 57.9501C388.202 62.7549 383.835 69.1495 380.819 76.5905C377.803 84.0315 376.228 92.299 376.228 100.691Z" fill="#4EA926"/>
<path d="M385.831 134.379C389.634 140.157 394.371 144.8 399.711 147.985C405.051 151.17 410.866 152.82 416.752 152.822C422.638 152.823 428.453 151.175 433.794 147.993C439.135 144.81 443.873 140.17 447.678 134.393C443.855 128.655 439.112 124.049 433.774 120.891C428.437 117.732 422.632 116.096 416.757 116.095C410.882 116.093 405.076 117.727 399.738 120.883C394.4 124.039 389.656 128.643 385.831 134.379Z" fill="white"/>
<path d="M416.754 106.369C407.707 106.369 400.373 96.9344 400.373 85.2966C400.373 73.6589 407.707 64.2246 416.754 64.2246C425.801 64.2246 433.135 73.6589 433.135 85.2966C433.135 96.9344 425.801 106.369 416.754 106.369Z" fill="white"/>
<g opacity="0.4">
<path d="M498.701 299.452C495.98 299.452 493.774 296.614 493.774 293.114C493.774 289.614 495.98 286.776 498.701 286.776C501.422 286.776 503.628 289.614 503.628 293.114C503.628 296.614 501.422 299.452 498.701 299.452Z" fill="#292A2E"/>
<path d="M483.289 299.452C480.568 299.452 478.363 296.615 478.363 293.114C478.363 289.614 480.568 286.777 483.289 286.777C486.011 286.777 488.216 289.614 488.216 293.114C488.216 296.615 486.011 299.452 483.289 299.452Z" fill="#292A2E"/>
<path d="M467.877 299.452C465.156 299.452 462.95 296.615 462.95 293.114C462.95 289.614 465.156 286.777 467.877 286.777C470.598 286.777 472.804 289.614 472.804 293.114C472.804 296.615 470.598 299.452 467.877 299.452Z" fill="#292A2E"/>
<path d="M452.466 299.452C449.745 299.452 447.539 296.615 447.539 293.114C447.539 289.614 449.745 286.777 452.466 286.777C455.187 286.777 457.393 289.614 457.393 293.114C457.393 296.615 455.187 299.452 452.466 299.452Z" fill="#292A2E"/>
<path d="M437.054 299.452C434.333 299.452 432.127 296.615 432.127 293.114C432.127 289.614 434.333 286.777 437.054 286.777C439.775 286.777 441.981 289.614 441.981 293.114C441.981 296.615 439.775 299.452 437.054 299.452Z" fill="#292A2E"/>
<path d="M421.642 299.452C418.921 299.452 416.716 296.615 416.716 293.114C416.716 289.614 418.921 286.777 421.642 286.777C424.364 286.777 426.569 289.614 426.569 293.114C426.569 296.615 424.364 299.452 421.642 299.452Z" fill="#292A2E"/>
<path d="M406.231 299.452C403.51 299.452 401.304 296.615 401.304 293.114C401.304 289.614 403.51 286.777 406.231 286.777C408.952 286.777 411.158 289.614 411.158 293.114C411.158 296.615 408.952 299.452 406.231 299.452Z" fill="#292A2E"/>
</g>
</svg>
