<?xml version="1.0" standalone="no"?>
<!DOCTYPE svg PUBLIC "-//W3C//DTD SVG 20010904//EN"
 "http://www.w3.org/TR/2001/REC-SVG-20010904/DTD/svg10.dtd">
<svg version="1.0" xmlns="http://www.w3.org/2000/svg"
 width="124.000000pt" height="186.000000pt" viewBox="0 0 124.000000 186.000000"
 preserveAspectRatio="xMidYMid meet">

<g transform="translate(0.000000,186.000000) scale(0.100000,-0.100000)"
fill="#000000" stroke="none">
<path d="M0 1784 c0 -47 4 -73 10 -69 6 3 10 18 10 31 0 36 24 25 28 -13 3
-25 8 -30 28 -30 13 0 24 3 24 8 0 5 9 9 19 9 11 0 21 5 23 11 5 14 91 21 99
8 9 -15 184 -24 193 -10 11 17 22 13 34 -14 11 -25 12 -25 47 -7 19 9 35 23
35 30 0 15 96 17 105 2 3 -5 14 -10 24 -10 10 0 21 -9 24 -19 4 -17 -2 -19
-68 -18 -90 0 -133 -23 -179 -97 -46 -73 -78 -146 -72 -163 9 -24 -3 -34 -26
-22 -14 8 -23 8 -31 0 -19 -19 -40 -13 -34 9 6 24 -16 44 -43 37 -11 -3 -18
-2 -15 3 2 4 -15 5 -39 3 -36 -4 -48 -1 -66 17 -13 13 -26 18 -31 13 -17 -17
-76 -3 -87 20 -8 16 -11 -206 -11 -745 l-1 -768 620 0 620 0 0 470 0 470 -22
-1 c-18 -1 -19 -2 -5 -6 9 -2 15 -9 12 -14 -8 -12 -45 -12 -45 0 0 5 -8 11
-17 13 -10 2 3 8 30 12 l47 7 0 271 c0 227 -2 269 -14 259 -10 -8 -11 -22 -6
-53 7 -36 5 -44 -18 -64 -28 -27 -38 -30 -44 -13 -3 9 -17 9 -54 -1 -37 -9
-61 -10 -90 -2 l-39 10 33 1 c17 1 32 6 32 11 0 6 -4 10 -10 10 -5 0 -10 5
-10 11 0 9 -28 77 -37 88 -1 2 -9 -2 -18 -9 -10 -8 -15 -9 -15 -1 0 6 -7 11
-15 11 -8 0 -15 7 -15 15 0 9 -9 15 -22 15 -47 0 -63 12 -81 55 -10 24 -37 60
-59 80 -39 36 -39 37 -23 62 9 13 19 22 22 19 4 -3 15 1 25 11 17 15 21 15 58
-3 42 -20 51 -34 23 -35 -15 0 -15 -2 2 -8 15 -6 22 -4 27 9 9 24 28 35 28 16
0 -9 9 -16 20 -16 11 0 20 7 20 16 0 10 6 13 18 10 10 -4 27 3 42 17 27 24 70
25 70 1 0 -8 9 -14 20 -14 12 0 17 5 14 14 -3 9 8 17 35 24 32 8 41 7 41 -3 0
-7 5 -15 12 -17 7 -3 15 -29 19 -59 5 -43 6 -30 8 59 l1 112 -620 0 -620 0 0
-76z m120 -34 c0 -5 -7 -10 -16 -10 -8 0 -12 5 -9 10 3 6 10 10 16 10 5 0 9
-4 9 -10z m481 -155 c20 -11 32 -26 36 -46 3 -17 17 -37 30 -46 23 -16 23 -16
3 -30 -11 -8 -36 -13 -56 -11 -42 4 -68 -23 -54 -57 9 -19 9 -19 16 3 7 25 26
29 46 8 12 -12 18 -12 39 0 13 7 28 13 32 14 12 0 -2 -40 -29 -82 -13 -20 -21
-43 -18 -51 5 -15 -20 -47 -37 -47 -5 0 -7 11 -3 25 5 19 2 25 -10 25 -9 0
-13 6 -10 15 9 23 -25 31 -44 10 -12 -12 -13 -19 -5 -22 7 -2 9 -11 6 -19 -3
-8 1 -14 8 -14 11 0 11 -3 -1 -10 -12 -8 -11 -10 6 -10 26 0 34 -8 27 -26 -10
-26 -50 -16 -75 19 -27 37 -58 121 -58 154 0 18 6 23 26 23 14 0 23 -4 19 -10
-9 -15 5 -12 22 5 12 12 13 19 3 30 -14 17 -45 21 -34 4 4 -8 0 -8 -15 0 -22
12 -22 35 0 108 15 48 75 66 130 38z m13 -474 c21 -14 36 -17 57 -11 21 6 33
4 49 -10 18 -16 20 -27 18 -107 l-2 -89 -38 -27 c-44 -31 -82 -34 -170 -13
-97 23 -136 65 -89 98 10 7 24 29 31 48 8 24 28 46 61 68 33 22 47 37 43 47
-8 20 5 19 40 -4z m461 -11 c3 -5 1 -10 -4 -10 -6 0 -11 5 -11 10 0 6 2 10 4
10 3 0 8 -4 11 -10z m0 -39 c-3 -6 -13 -11 -21 -11 -29 0 -14 -29 19 -33 17
-2 10 -3 -17 -2 -62 3 -80 26 -32 40 19 6 38 13 42 18 10 10 18 1 9 -12z m62
-81 c33 0 60 -5 68 -14 12 -12 5 -13 -47 -10 -80 5 -99 11 -91 32 4 10 8 12
11 4 2 -7 25 -12 59 -12z m-267 -50 c-8 -5 -22 -9 -30 -9 -10 0 -8 3 5 9 27
12 43 12 25 0z m-403 -472 c32 -12 66 -30 76 -40 10 -10 22 -16 28 -13 5 4 9
3 9 -2 0 -4 14 -16 32 -26 22 -12 28 -21 21 -28 -8 -8 -18 -6 -36 6 -35 22
-46 1 -16 -31 17 -19 19 -24 7 -24 -9 0 -21 7 -28 15 -7 8 -21 15 -31 15 -11
0 -19 5 -19 11 0 6 -5 7 -12 2 -21 -13 -52 -3 -73 23 -13 17 -31 26 -53 26
-17 1 -32 4 -32 9 0 4 -3 14 -6 22 -7 19 30 57 55 57 11 0 45 -10 78 -22z
m-62 -158 c12 -23 13 -34 4 -54 -10 -21 -14 -23 -25 -11 -8 7 -11 21 -7 30 5
14 2 16 -15 11 -20 -7 -20 -6 -6 23 19 39 29 39 49 1z m159 -29 c11 -12 16
-21 12 -21 -13 0 -66 41 -66 51 0 13 30 -4 54 -30z"/>
<path d="M498 1283 c6 -2 18 -2 25 0 6 3 1 5 -13 5 -14 0 -19 -2 -12 -5z"/>
<path d="M741 1691 c-10 -6 -10 -10 -1 -16 13 -8 24 -1 19 14 -3 6 -10 7 -18
2z"/>
<path d="M3 1620 c0 -30 2 -43 4 -27 2 15 2 39 0 55 -2 15 -4 2 -4 -28z"/>
</g>
</svg>
